<svg width="40" height="40" viewBox="0 0 40 40" fill="none" xmlns="http://www.w3.org/2000/svg">
<g clip-path="url(#clip0_112_11002)">
<path d="M29.6832 7.45001C29.5499 7.45001 29.4166 7.41668 29.2999 7.35001C26.0999 5.70001 23.3332 5.00001 20.0166 5.00001C16.7166 5.00001 13.5832 5.78334 10.7332 7.35001C10.3332 7.56668 9.83323 7.41668 9.59989 7.01668C9.38323 6.61668 9.53323 6.10001 9.93323 5.88334C13.0332 4.20001 16.4332 3.33334 20.0166 3.33334C23.5666 3.33334 26.6666 4.11668 30.0666 5.86668C30.4832 6.08334 30.6332 6.58334 30.4166 6.98334C30.2666 7.28334 29.9832 7.45001 29.6832 7.45001ZM5.83323 16.2C5.66656 16.2 5.49989 16.15 5.34989 16.05C4.96656 15.7833 4.88323 15.2667 5.14989 14.8833C6.79989 12.55 8.89989 10.7167 11.3999 9.43334C16.6332 6.73334 23.3332 6.71668 28.5832 9.41668C31.0832 10.7 33.1832 12.5167 34.8332 14.8333C35.0999 15.2 35.0166 15.7333 34.6332 16C34.2499 16.2667 33.7332 16.1833 33.4666 15.8C31.9666 13.7 30.0666 12.05 27.8166 10.9C23.0332 8.45001 16.9166 8.45001 12.1499 10.9167C9.88323 12.0833 7.98323 13.75 6.48323 15.85C6.34989 16.0833 6.09989 16.2 5.83323 16.2ZM16.2499 36.3167C16.0332 36.3167 15.8166 36.2333 15.6666 36.0667C14.2166 34.6167 13.4332 33.6833 12.3166 31.6667C11.1666 29.6167 10.5666 27.1167 10.5666 24.4333C10.5666 19.4833 14.7999 15.45 19.9999 15.45C25.1999 15.45 29.4332 19.4833 29.4332 24.4333C29.4332 24.9 29.0666 25.2667 28.5999 25.2667C28.1332 25.2667 27.7666 24.9 27.7666 24.4333C27.7666 20.4 24.2832 17.1167 19.9999 17.1167C15.7166 17.1167 12.2332 20.4 12.2332 24.4333C12.2332 26.8333 12.7666 29.05 13.7832 30.85C14.8499 32.7667 15.5832 33.5833 16.8666 34.8833C17.1832 35.2167 17.1832 35.7333 16.8666 36.0667C16.6832 36.2333 16.4666 36.3167 16.2499 36.3167ZM28.1999 33.2333C26.2166 33.2333 24.4666 32.7333 23.0332 31.75C20.5499 30.0667 19.0666 27.3333 19.0666 24.4333C19.0666 23.9667 19.4332 23.6 19.8999 23.6C20.3666 23.6 20.7332 23.9667 20.7332 24.4333C20.7332 26.7833 21.9332 29 23.9666 30.3667C25.1499 31.1667 26.5332 31.55 28.1999 31.55C28.5999 31.55 29.2666 31.5 29.9332 31.3833C30.3832 31.3 30.8166 31.6 30.8999 32.0667C30.9832 32.5167 30.6832 32.95 30.2166 33.0333C29.2666 33.2167 28.4332 33.2333 28.1999 33.2333ZM24.8499 36.6667C24.7832 36.6667 24.6999 36.65 24.6332 36.6333C21.9832 35.9 20.2499 34.9167 18.4332 33.1333C16.0999 30.8167 14.8166 27.7333 14.8166 24.4333C14.8166 21.7333 17.1166 19.5333 19.9499 19.5333C22.7832 19.5333 25.0832 21.7333 25.0832 24.4333C25.0832 26.2167 26.6332 27.6667 28.5499 27.6667C30.4666 27.6667 32.0166 26.2167 32.0166 24.4333C32.0166 18.15 26.5999 13.05 19.9332 13.05C15.1999 13.05 10.8666 15.6833 8.91656 19.7667C8.26656 21.1167 7.93323 22.7 7.93323 24.4333C7.93323 25.7333 8.04989 27.7833 9.04989 30.45C9.21656 30.8833 8.99989 31.3667 8.56656 31.5167C8.13323 31.6833 7.64989 31.45 7.49989 31.0333C6.68323 28.85 6.28323 26.6833 6.28323 24.4333C6.28323 22.4333 6.66656 20.6167 7.41656 19.0333C9.63323 14.3833 14.5499 11.3667 19.9332 11.3667C27.5166 11.3667 33.6832 17.2167 33.6832 24.4167C33.6832 27.1167 31.3832 29.3167 28.5499 29.3167C25.7166 29.3167 23.4166 27.1167 23.4166 24.4167C23.4166 22.6333 21.8666 21.1833 19.9499 21.1833C18.0332 21.1833 16.4832 22.6333 16.4832 24.4167C16.4832 27.2667 17.5832 29.9333 19.5999 31.9333C21.1832 33.5 22.6999 34.3667 25.0499 35.0167C25.4999 35.1333 25.7499 35.6 25.6332 36.0333C25.5499 36.4167 25.1999 36.6667 24.8499 36.6667Z" fill="#858E8E"/>
</g>
<defs>
<clipPath id="clip0_112_11002">
<rect width="40" height="40" fill="white"/>
</clipPath>
</defs>
</svg>
