<svg width="24" height="21" viewBox="0 0 24 21" fill="none" xmlns="http://www.w3.org/2000/svg">
    <path d="M17.644 12.4157C18.1983 11.4583 19.0928 11.4583 19.6471 12.4157L23.0991 18.4756C23.6534 19.4331 23.1999 20.2142 22.0912 20.2142H15.1369C14.0408 20.2142 13.5873 19.4331 14.129 18.4756L17.644 12.4157ZM10.9668 0.749604C11.5211 -0.207876 12.403 -0.207876 12.9573 0.749604L13.7258 2.13543L15.54 5.32283C15.981 6.22992 15.981 7.30079 15.54 8.20787L9.45498 18.7528C8.90065 19.6094 7.98096 20.1512 6.96049 20.2142H1.90852C0.79986 20.2142 0.346317 19.4457 0.900647 18.4756L10.9668 0.749604Z" fill="#858E8E"/>
</svg>