<svg width="15" height="21" viewBox="0 0 15 21" fill="none" xmlns="http://www.w3.org/2000/svg">
    <path d="M13.3138 6.87724C13.089 4.73607 11.233 4.03386 8.89571 3.84966L8.86975 0.877226L7.0604 0.893275L7.08582 3.78741C6.61012 3.79153 6.12405 3.8052 5.64102 3.81904L5.61588 0.905688L3.80759 0.921463L3.83293 3.89309C3.44136 3.90453 3.05664 3.91525 2.68158 3.9187L2.68128 3.90941L0.18582 3.93027L0.203169 5.86272C0.203169 5.86272 1.53905 5.82565 1.51707 5.85032C2.24983 5.8441 2.49215 6.26757 2.56488 6.63408L2.59455 10.0204C2.64506 10.0201 2.71105 10.0217 2.78594 10.0314C2.72558 10.0319 2.66126 10.0322 2.59477 10.0334L2.63569 14.7772C2.60565 15.0081 2.4733 15.3772 1.96123 15.3825C1.98465 15.4027 0.646047 15.3937 0.646047 15.3937L0.305323 17.5577L2.65996 17.537C3.09816 17.5338 3.52935 17.5375 3.95274 17.5363L3.97978 20.5426L5.78716 20.5271L5.76106 17.5525C6.25745 17.5585 6.73762 17.5582 7.2066 17.5537L7.23165 20.5145L9.04107 20.4985L9.01532 17.4975C12.0557 17.2964 14.178 16.5116 14.4173 13.6526C14.6107 11.3506 13.5198 10.3338 11.7896 9.93425C12.834 9.39086 13.4816 8.444 13.3144 6.87731L13.3138 6.87707L13.3138 6.87724ZM10.8385 13.3275C10.8591 15.5742 7.01006 15.3523 5.78382 15.3641L5.74953 11.3809C6.97609 11.3705 10.8182 10.9842 10.8386 13.3275L10.8385 13.3275ZM9.94788 7.71508C9.96522 9.759 6.75498 9.54855 5.73358 9.55752L5.7022 5.94501C6.7236 5.93604 9.92915 5.58331 9.94803 7.71504L9.94788 7.71508Z" fill="#858E8E"/>
</svg>