<svg width="22" height="20" viewBox="0 0 22 20" fill="none" xmlns="http://www.w3.org/2000/svg">
    <path d="M16.3334 6.43607C15.9493 6.21568 15.4581 6.21568 15.0236 6.43607L11.9634 8.24953L9.8855 9.40183L6.88196 11.209C6.49786 11.4294 6.00671 11.4294 5.57224 11.209L3.22355 9.77963C2.83945 9.55925 2.5687 9.11848 2.5687 8.62733V5.88196C2.5687 5.44118 2.78908 5.00671 3.22355 4.72966L5.57224 3.35697C5.95634 3.13658 6.44748 3.13658 6.88196 3.35697L9.23064 4.78632C9.61474 5.00671 9.8855 5.44748 9.8855 5.93863V7.75209L11.9634 6.54311V4.67928C11.9634 4.23851 11.743 3.80403 11.3086 3.52698L6.93863 0.945319C6.55453 0.724933 6.06338 0.724933 5.62891 0.945319L1.15193 3.58365C0.717456 3.80403 0.49707 4.24481 0.49707 4.67928V9.83631C0.49707 10.2771 0.717456 10.7116 1.15193 10.9886L5.57853 13.5703C5.96263 13.7907 6.45378 13.7907 6.88825 13.5703L9.8918 11.8135L11.9697 10.6045L14.9733 8.84772C15.3574 8.62733 15.8485 8.62733 16.283 8.84772L18.6317 10.2204C19.0158 10.4408 19.2865 10.8816 19.2865 11.3727V14.1181C19.2865 14.5589 19.0661 14.9933 18.6317 15.2704L16.3397 16.6431C15.9556 16.8635 15.4644 16.8635 15.0299 16.6431L12.675 15.2704C12.2909 15.05 12.0201 14.6092 12.0201 14.1181V12.3613L9.94217 13.5703V15.3837C9.94217 15.8245 10.1626 16.259 10.597 16.536L15.0236 19.1177C15.4077 19.3381 15.8989 19.3381 16.3334 19.1177L20.76 16.536C21.1441 16.3156 21.4148 15.8749 21.4148 15.3837V10.17C21.4148 9.72926 21.1944 9.29479 20.76 9.01773L16.3334 6.43607Z" fill="#858E8E"/>
</svg>