<svg width="56" height="80" viewBox="0 0 56 80" fill="none" xmlns="http://www.w3.org/2000/svg">
<path d="M40.3094 0C39.5991 0 38.8787 0.0507405 38.1532 0.152222L9.25509 4.23176C9.17646 4.24191 9.10036 4.25459 9.02172 4.26981C8.9304 4.2825 8.83908 4.30026 8.75029 4.31802C8.70463 4.32563 8.65897 4.33578 8.61585 4.34592C8.4814 4.37383 8.34696 4.40428 8.21505 4.43726C8.08314 4.47024 7.95123 4.50576 7.82186 4.54381C7.72039 4.57172 7.61892 4.6047 7.51746 4.63768C7.44897 4.65798 7.38048 4.68081 7.31198 4.70618C7.23842 4.73155 7.16739 4.75692 7.09636 4.78483C7.06339 4.79498 7.03041 4.80766 6.99743 4.82289C6.90611 4.8584 6.81479 4.89392 6.72601 4.93198C6.68542 4.9472 6.64483 4.96496 6.60678 4.98272C6.518 5.02077 6.43175 5.06137 6.3455 5.10196C6.31252 5.11718 6.27955 5.1324 6.24911 5.15016C6.1654 5.18822 6.08169 5.23135 5.99797 5.27448C5.8889 5.33029 5.78235 5.38864 5.67835 5.44699C5.59464 5.4952 5.51093 5.5434 5.42975 5.59414C5.28516 5.6804 5.14311 5.77173 5.00359 5.8656C4.9351 5.91127 4.86661 5.95947 4.79812 6.01021C4.73977 6.04827 4.68396 6.0914 4.62562 6.13453C4.20453 6.44658 3.8088 6.79162 3.44352 7.16456C1.64754 8.98868 0.549147 11.4826 0.528853 14.2048L0.498413 18.4112L11.6091 25.0734L11.6827 15.1638L15.8175 14.5803L39.7132 11.206C39.9136 11.1781 40.114 11.1629 40.3094 11.1629C42.5315 11.1629 44.3402 12.987 44.3402 15.2272V26.5449C44.3402 29.2341 43.3686 31.8346 41.6031 33.8642C41.4762 34.0114 41.3443 34.156 41.2099 34.2955C39.4849 36.0841 37.2095 37.2486 34.7388 37.5962L30.5101 38.1924C30.8069 38.6186 31.0834 39.06 31.3421 39.5142C32.8083 42.1045 33.5846 45.0449 33.5846 48.0208V49.0331L36.2963 48.65C39.3327 48.2212 42.1535 47.1937 44.6496 45.6969C51.2045 41.7696 55.5016 34.6025 55.5016 26.5449V15.2272C55.5016 6.70536 48.5612 0 40.3094 0Z" fill="url(#paint0_linear_142_1066)"/>
<path d="M44.6496 45.6969C44.5964 45.0499 44.5203 44.4081 44.4239 43.7713C43.9191 40.4224 42.8232 37.2156 41.2099 34.2955C40.8776 33.6917 40.525 33.1031 40.1495 32.5246C37.8335 28.9601 34.7058 25.903 30.9388 23.6425L15.8175 14.5803H15.815L8.01972 9.90707L7.92587 9.85125C7.88528 9.82842 7.84469 9.80051 7.8041 9.7726C7.01012 9.22461 6.49009 8.30874 6.49009 7.26856C6.49009 5.81231 7.51492 4.58946 8.88727 4.29517C8.84161 4.30278 8.79595 4.31039 8.75029 4.318C8.70463 4.32561 8.65897 4.33576 8.61585 4.34591C8.4814 4.37381 8.34696 4.40426 8.21505 4.43724C8.08314 4.47022 7.95123 4.50574 7.82186 4.54379C7.72039 4.5717 7.61892 4.60468 7.51746 4.63766C7.44897 4.65796 7.38048 4.68079 7.31198 4.70616C7.23842 4.73153 7.16739 4.7569 7.09636 4.78481C7.06339 4.79496 7.03041 4.80765 6.99743 4.82287C6.90611 4.85839 6.81479 4.8939 6.72601 4.93196C6.68542 4.94718 6.64483 4.96494 6.60678 4.9827C6.518 5.02075 6.43175 5.06135 6.3455 5.10194C6.31252 5.11716 6.27955 5.13238 6.24911 5.15014C6.1654 5.1882 6.08169 5.23133 5.99797 5.27446C5.8889 5.33027 5.78235 5.38862 5.67835 5.44698C5.59464 5.49518 5.51093 5.54338 5.42975 5.59412C5.28516 5.68038 5.14311 5.77171 5.00359 5.86558C4.9351 5.91125 4.86661 5.95945 4.79812 6.0102C4.73977 6.04825 4.68396 6.09138 4.62562 6.13451C4.20453 6.44656 3.8088 6.7916 3.44352 7.16454C1.64754 8.98866 0.549147 11.4826 0.528853 14.2048L0.498413 18.4112L11.6091 25.0734H11.6117L25.2008 33.2198C27.2961 34.4756 29.1022 36.1678 30.4898 38.1645C30.4974 38.1746 30.5025 38.1822 30.5101 38.1924C30.8069 38.6186 31.0834 39.06 31.3421 39.5142C32.8083 42.1045 33.5846 45.0449 33.5846 48.0208V73.4139L44.746 80V48.0208C44.746 47.2419 44.7131 46.4656 44.6496 45.6969Z" fill="#7040EC"/>
<path d="M11.5584 38.0554L11.4772 58.0294C11.4721 59.473 12.2307 60.81 13.4738 61.5432L21.5695 66.3204L21.6532 46.42C21.6583 44.9865 20.9099 43.6571 19.6819 42.9214L11.5584 38.0529V38.0554Z" fill="#7040EC"/>
<defs>
<linearGradient id="paint0_linear_142_1066" x1="41.9375" y1="9.94445" x2="26.1035" y2="32.887" gradientUnits="userSpaceOnUse">
<stop stop-color="#7040EC"/>
<stop offset="1" stop-color="#220862"/>
</linearGradient>
</defs>
</svg>
