<svg width="25" height="24" viewBox="0 0 25 24" fill="none" xmlns="http://www.w3.org/2000/svg">
<g clip-path="url(#clip0_880_28319)">
<path d="M17.25 9C15.7666 9 14.3166 9.43987 13.0832 10.264C11.8499 11.0881 10.8886 12.2594 10.3209 13.6299C9.75325 15.0003 9.60472 16.5083 9.89411 17.9632C10.1835 19.418 10.8978 20.7544 11.9467 21.8033C12.9956 22.8522 14.332 23.5665 15.7868 23.8559C17.2417 24.1453 18.7497 23.9968 20.1201 23.4291C21.4906 22.8614 22.6619 21.9001 23.486 20.6668C24.3101 19.4334 24.75 17.9834 24.75 16.5C24.75 14.5109 23.9598 12.6032 22.5533 11.1967C21.1468 9.79018 19.2391 9 17.25 9ZM19.4 20.06L16.25 16.91V12.46H18.25V16.08L20.81 18.64L19.4 20.06Z" fill="#7040EC"/>
<path d="M17.25 7C18.4486 6.99911 19.6364 7.22649 20.75 7.67V4.78C20.75 4.30791 20.5625 3.85516 20.2286 3.52135C19.8948 3.18754 19.4421 3 18.97 3H16.75V0H14.75V3H6.75V0H4.75V3H2.54C2.06699 2.99999 1.61321 3.18721 1.2778 3.52074C0.942397 3.85427 0.752643 4.307 0.75 4.78L0.75 9H11.45C13.106 7.70479 15.1477 7.00077 17.25 7Z" fill="#535757"/>
<path d="M0.75 11V18.22C0.749996 18.4546 0.796367 18.6869 0.886445 18.9035C0.976523 19.1201 1.10853 19.3168 1.27488 19.4822C1.44123 19.6476 1.63864 19.7785 1.85575 19.8674C2.07287 19.9562 2.30541 20.0013 2.54 20H8.42C7.83419 18.5279 7.6279 16.9321 7.82012 15.3595C8.01233 13.7868 8.59688 12.2877 9.52 11H0.75Z" fill="#7040EC"/>
</g>
<defs>
<clipPath id="clip0_880_28319">
<rect width="24" height="24" fill="white" transform="translate(0.75)"/>
</clipPath>
</defs>
</svg>
