<svg width="24" height="24" viewBox="0 0 24 24" fill="none" xmlns="http://www.w3.org/2000/svg">
<g id="topl lvl">
<path id="Union" fill-rule="evenodd" clip-rule="evenodd" d="M13.3394 12.0302L13.376 7.06808C13.3844 5.88795 12.4796 5.06186 11.3585 5.21921L9.32418 5.50582C8.20025 5.66317 7.28425 6.74776 7.27301 7.92508L7.19995 18.0686C7.19995 18.3636 7.42474 18.5687 7.70572 18.5294L10.9033 18.0798L10.9314 14.5001C10.9398 13.3228 11.8558 12.2382 12.9798 12.0808L13.3394 12.0302ZM18.6922 13.6403C18.7006 12.4658 17.7986 11.6369 16.6747 11.7942V11.7914L14.6404 12.078C13.5193 12.2354 12.6005 13.32 12.592 14.4973L12.5639 18.2344C12.5611 18.5294 12.7887 18.7345 13.0669 18.6952L18.1499 17.9815C18.4309 17.9421 18.6641 17.6724 18.6641 17.3774L18.6922 13.6403Z" fill="#7040EC"/>
</g>
</svg>