<svg width="24" height="19" viewBox="0 0 24 19" fill="none" xmlns="http://www.w3.org/2000/svg">
    <path fill-rule="evenodd" clip-rule="evenodd" d="M15.0353 7.68222C15.0241 9.24797 16.2263 10.353 17.7243 10.1432H17.7206L20.4321 9.76115C21.9264 9.55138 23.1511 8.1055 23.1623 6.536L23.1998 1.55407C23.2035 1.16076 22.9002 0.887318 22.5294 0.93976L15.7581 1.89494C15.3836 1.94738 15.0727 2.30698 15.0727 2.70029L15.0353 7.68222ZM8.96811 1.55407V1.76009H8.9344L6.42139 2.11595C6.04687 2.16839 5.73977 2.52798 5.73977 2.92129L5.68734 9.82857L3.48892 10.1432C1.99085 10.353 0.788647 9.25172 0.799883 7.68222L0.837335 2.69655C0.837335 2.30324 1.14818 1.94364 1.5227 1.8912L8.29772 0.93976C8.6685 0.887318 8.97186 1.16076 8.96811 1.55407ZM15.4772 10.1432L16.054 10.0608L16.0165 15.2975C16.0128 15.5934 15.9678 15.8818 15.8892 16.1628C15.5371 17.3689 14.5035 18.3541 13.2863 18.5264L10.5748 18.9084C9.81452 19.0133 9.12915 18.7811 8.63853 18.3166C8.60857 18.2941 8.58236 18.2642 8.55614 18.2342C8.13293 17.7922 7.88201 17.1666 7.88575 16.4437L7.93444 9.82858L7.98687 2.9213C7.98687 2.52799 8.29398 2.16839 8.6685 2.11595L11.1815 1.76384L15.4473 1.16451C15.5147 1.15702 15.5746 1.15702 15.6345 1.16451C15.6484 1.16451 15.6622 1.16861 15.6746 1.17226C15.6789 1.17354 15.6831 1.17477 15.687 1.17575C15.6977 1.17791 15.7073 1.1813 15.7163 1.18451C15.7229 1.18688 15.7293 1.18914 15.7356 1.19073C15.7581 1.19822 15.7768 1.20572 15.7918 1.21695C15.8443 1.23943 15.8892 1.27314 15.9304 1.31434C15.9429 1.32184 15.952 1.33266 15.9612 1.34348C15.9658 1.34889 15.9703 1.3543 15.9753 1.35929C15.9866 1.37053 15.9941 1.38177 16.0015 1.39301L16.0353 1.44919C16.0502 1.47541 16.0615 1.50164 16.0727 1.5316L13.5073 1.8912C13.1327 1.94364 12.8256 2.30324 12.8219 2.69655L12.7882 7.68223C12.7732 9.25173 13.9792 10.353 15.4772 10.1432Z" fill="#858E8E"/>
</svg>