<svg width="16" height="19" viewBox="0 0 16 19" fill="none" xmlns="http://www.w3.org/2000/svg">
    <path fill-rule="evenodd" clip-rule="evenodd" d="M8.78607 10.0403L8.83478 3.4241C8.84602 1.8506 7.63966 0.749141 6.14483 0.958942L3.43241 1.34108C1.93383 1.55088 0.712491 2.99701 0.697505 4.56677L0.600098 18.0914C0.600098 18.4848 0.899813 18.7583 1.27446 18.7058L5.53791 18.1064L5.57537 13.3334C5.58661 11.7637 6.80795 10.3176 8.30653 10.1078L8.78607 10.0403ZM15.9231 12.187C15.9343 10.621 14.7317 9.51582 13.2331 9.72562V9.72187L10.5207 10.104C9.02586 10.3138 7.80077 11.7599 7.78953 13.3297L7.75207 18.3125C7.74832 18.7058 8.05179 18.9793 8.42268 18.9269L15.2 17.9753C15.5746 17.9228 15.8856 17.5632 15.8856 17.1698L15.9231 12.187Z" fill="#858E8E"/>
</svg>
