<svg width="24" height="24" viewBox="0 0 24 24" fill="none" xmlns="http://www.w3.org/2000/svg">
<path d="M11.9404 6.11499C10.9199 6.13331 9.94734 6.55088 9.2313 7.27814C8.51526 8.0054 8.11284 8.98435 8.11039 10.0049C8.10896 10.3255 8.14929 10.6448 8.23038 10.955C8.42499 11.7285 8.85268 12.4234 9.45548 12.9457C10.0583 13.468 10.8071 13.7925 11.6004 13.875H12.0004H12.4004C13.1942 13.7939 13.9437 13.47 14.5468 12.9474C15.1498 12.4249 15.5771 11.7291 15.7704 10.955" stroke="#858E8E" stroke-width="2" stroke-miterlimit="10"/>
<path d="M1.2002 12.0021C2.36458 13.8081 3.96328 15.2933 5.85004 16.3218C7.73679 17.3502 9.85133 17.8892 12.0002 17.8892C14.149 17.8892 16.2636 17.3502 18.1503 16.3218C20.0371 15.2933 21.6358 13.8081 22.8002 12.0021C21.6358 10.196 20.0371 8.71084 18.1503 7.68237C16.2636 6.65391 14.149 6.11499 12.0002 6.11499C9.85133 6.11499 7.73679 6.65391 5.85004 7.68237C3.96328 8.71084 2.36458 10.196 1.2002 12.0021Z" stroke="#858E8E" stroke-width="2" stroke-miterlimit="10"/>
</svg>
