<svg width="25" height="22" viewBox="0 0 25 22" fill="none" xmlns="http://www.w3.org/2000/svg">
    <path d="M2.25 9C2.25 8.67 2.42 8.44 2.57 8.3C2.78 8.1 3.06 8 3.38 8H7.78L7.91 7.28L8.13 6H3.38C2.55 6 1.77 6.3 1.2 6.84C0.59 7.41 0.25 8.18 0.25 9H0.25V18.99C0.25 20.65 1.6 22 3.25 22H18.25V10H3.38C2.77 10 2.25 9.54 2.25 9ZM12.25 15H14.25V17H12.25V15Z" fill="#7040EC"/>
    <path d="M24.2501 9.49995L15.3801 3.94995L12.8501 7.99995H20.2501V15.9L24.2501 9.49995Z" fill="#535757"/>
    <path d="M11.1501 6.94L13.6801 2.89L14.7401 1.19L16.4401 2.25L20.9501 5.07L21.5301 1.82L11.2201 0L9.81006 8H10.4901L11.1501 6.94Z" fill="#535757"/>
</svg>
