<svg width="76" height="76" viewBox="0 0 76 76" fill="none" xmlns="http://www.w3.org/2000/svg">
    <rect width="76" height="76" rx="38" fill="#0DC8D4" fill-opacity="0.04"/>
    <path d="M29.5254 36.7925C29.7129 36.1925 30.2829 35.7575 30.9504 35.7575H49.5429C50.3754 35.7575 51.0429 36.425 51.0429 37.2575V46.25C51.0429 47.0825 50.3754 47.75 49.5429 47.75H36.4779" stroke="#0DC8D4" stroke-width="2" stroke-miterlimit="10"/>
    <path d="M34.25 35.75V28.55C34.25 25.895 36.395 23.75 39.05 23.75H41.45C44.105 23.75 46.25 25.895 46.25 28.55V32.15" stroke="#0DC8D4" stroke-width="2" stroke-miterlimit="10"/>
    <path d="M37.8506 41.75H42.6506" stroke="#0DC8D4" stroke-width="2" stroke-miterlimit="10"/>
    <path d="M22.25 40.8275V46.115C22.25 51.9725 28.31 53.75 28.31 53.75C28.31 53.75 34.37 51.9725 34.37 46.115V40.8275L28.31 38.75L22.25 40.8275Z" stroke="#7040EC" stroke-width="2" stroke-miterlimit="10"/>
</svg>
