<svg width="23" height="22" viewBox="0 0 23 22" fill="none" xmlns="http://www.w3.org/2000/svg">
    <path d="M20.125 16.181v.893c0 .981-.863 1.784-1.917 1.784H4.792c-1.064 0-1.917-.803-1.917-1.784V4.582c0-.981.853-1.784 1.917-1.784h13.416c1.055 0 1.917.803 1.917 1.784v.893H11.5c-1.064 0-1.917.803-1.917 1.784v7.138c0 .982.853 1.784 1.917 1.784h8.625zM11.5 14.397h9.583V7.259H11.5v7.138zm3.833-2.23c-.795 0-1.437-.598-1.437-1.339 0-.74.642-1.338 1.437-1.338.796 0 1.438.598 1.438 1.338 0 .74-.642 1.338-1.438 1.338z" fill="#26A69A"/>
</svg>
