<svg width="25" height="26" viewBox="0 0 25 26" fill="none" xmlns="http://www.w3.org/2000/svg">
    <ellipse cx="12.34" cy="12.852" rx="12.34" ry="12.852" fill="#D3F6D2"/>
    <path fill-rule="evenodd" clip-rule="evenodd" d="M17.061 9.183c-.31.006-.707.025-1.143.076-.987.114-2.3.398-3.24 1.153a8.375 8.375 0 0 0-1.775 1.92c-.134.196-.256.382-.376.567-.266.41-.527.81-.91 1.284-.465.577-1.32 1.058-2.146 1.405-.17.07-.333.135-.486.19a4.113 4.113 0 0 1-.275-.54c-1.065-2.527.51-5.727 3.516-7.145 2.607-1.23 5.435-.717 6.835 1.09zm.607 1.098-.02.261h-.005l-.02-.001a9.14 9.14 0 0 0-.434-.007c-.296.002-.705.017-1.158.07-.937.108-1.943.363-2.582.875a7.006 7.006 0 0 0-1.501 1.625c-.102.149-.207.31-.318.48a16.97 16.97 0 0 1-1.033 1.458c-.689.856-1.809 1.44-2.668 1.8l-.008.004c1.52 1.23 3.922 1.459 6.16.403 2.938-1.386 4.508-4.47 3.587-6.968z" fill="#26A69A"/>
</svg>
