<svg width="18" height="19" viewBox="0 0 18 19" fill="none" xmlns="http://www.w3.org/2000/svg">
    <path d="M15.375 8.708H14.25V5.542c0-.871-.675-1.584-1.5-1.584h-3V2.771c0-1.093-.84-1.98-1.875-1.98C6.84.792 6 1.679 6 2.772v1.187H3c-.825 0-1.492.713-1.492 1.584V8.55h1.117c1.118 0 2.025.958 2.025 2.138s-.908 2.137-2.025 2.137H1.5v3.008c0 .871.675 1.584 1.5 1.584h2.85v-1.188c0-1.18.908-2.137 2.025-2.137S9.9 15.05 9.9 16.229v1.188h2.85c.825 0 1.5-.713 1.5-1.584v-3.166h1.125c1.035 0 1.875-.887 1.875-1.98 0-1.092-.84-1.979-1.875-1.979z" fill="#323232"/>
</svg>
