<svg width="20" height="20" viewBox="0 0 20 20" fill="none" xmlns="http://www.w3.org/2000/svg">
<circle cx="10" cy="10" r="10" fill="#8AE3CF"/>
<path d="M12.1846 6.15236C12.149 6.15236 12.1135 6.14117 12.0823 6.11877C11.2288 5.56437 10.4909 5.32917 9.60628 5.32917C8.7261 5.32917 7.89037 5.59237 7.13022 6.11877C7.02353 6.19157 6.89017 6.14117 6.82793 6.00677C6.77014 5.87237 6.81015 5.69877 6.91684 5.62597C7.74367 5.06037 8.65053 4.76917 9.60628 4.76917C10.5531 4.76917 11.38 5.03237 12.2868 5.62037C12.398 5.69317 12.438 5.86117 12.3802 5.99557C12.3402 6.09637 12.2646 6.15236 12.1846 6.15236ZM5.82328 9.09237C5.77883 9.09237 5.73437 9.07557 5.69437 9.04197C5.59212 8.95237 5.5699 8.77877 5.64102 8.64997C6.08111 7.86597 6.64123 7.24997 7.30803 6.81877C8.70387 5.91156 10.4909 5.90597 11.8912 6.81317C12.558 7.24437 13.1181 7.85476 13.5582 8.63317C13.6293 8.75637 13.6071 8.93557 13.5049 9.02517C13.4026 9.11477 13.2648 9.08677 13.1937 8.95796C12.7936 8.25237 12.2868 7.69797 11.6867 7.31157C10.4109 6.48837 8.77944 6.48837 7.50807 7.31717C6.9035 7.70917 6.39673 8.26917 5.99665 8.97477C5.96109 9.05317 5.89441 9.09237 5.82328 9.09237ZM8.60163 15.8516C8.54384 15.8516 8.48605 15.8236 8.44604 15.7676C8.05929 15.2804 7.85036 14.9668 7.55252 14.2892C7.24579 13.6004 7.08576 12.7604 7.08576 11.8588C7.08576 10.1956 8.21488 8.84037 9.60183 8.84037C10.9888 8.84037 12.1179 10.1956 12.1179 11.8588C12.1179 12.0156 12.0201 12.1388 11.8956 12.1388C11.7712 12.1388 11.6734 12.0156 11.6734 11.8588C11.6734 10.5036 10.7443 9.40037 9.60183 9.40037C8.45938 9.40037 7.5303 10.5036 7.5303 11.8588C7.5303 12.6652 7.67255 13.41 7.94372 14.0148C8.22822 14.6588 8.42381 14.9332 8.76611 15.37C8.85057 15.482 8.85057 15.6556 8.76611 15.7676C8.71721 15.8236 8.65942 15.8516 8.60163 15.8516ZM11.7889 14.8156C11.2599 14.8156 10.7932 14.6476 10.4109 14.3172C9.74853 13.7516 9.35289 12.8332 9.35289 11.8588C9.35289 11.702 9.45069 11.5788 9.57516 11.5788C9.69963 11.5788 9.79743 11.702 9.79743 11.8588C9.79743 12.6484 10.1175 13.3932 10.6598 13.8524C10.9754 14.1212 11.3444 14.25 11.7889 14.25C11.8956 14.25 12.0734 14.2332 12.2513 14.194C12.3713 14.166 12.4869 14.2668 12.5091 14.4236C12.5313 14.5748 12.4513 14.7204 12.3268 14.7484C12.0734 14.81 11.8512 14.8156 11.7889 14.8156ZM10.8954 15.9692C10.8776 15.9692 10.8554 15.9636 10.8376 15.958C10.1308 15.7116 9.66851 15.3812 9.18397 14.782C8.56162 14.0036 8.21933 12.9676 8.21933 11.8588C8.21933 10.9516 8.83279 10.2124 9.5885 10.2124C10.3442 10.2124 10.9577 10.9516 10.9577 11.8588C10.9577 12.458 11.3711 12.9452 11.8823 12.9452C12.3935 12.9452 12.8069 12.458 12.8069 11.8588C12.8069 9.74757 11.3622 8.03397 9.58405 8.03397C8.32157 8.03397 7.16578 8.91877 6.64567 10.2908C6.4723 10.7444 6.3834 11.2764 6.3834 11.8588C6.3834 12.2956 6.41451 12.9844 6.68123 13.8804C6.72569 14.026 6.6679 14.1884 6.55232 14.2388C6.43674 14.2948 6.30782 14.2164 6.26782 14.0764C6.04999 13.3428 5.94331 12.6148 5.94331 11.8588C5.94331 11.1868 6.04555 10.5764 6.24559 10.0444C6.83682 8.48197 8.1482 7.46837 9.58405 7.46837C11.6067 7.46837 13.2515 9.43397 13.2515 11.8532C13.2515 12.7604 12.638 13.4996 11.8823 13.4996C11.1266 13.4996 10.5131 12.7604 10.5131 11.8532C10.5131 11.254 10.0997 10.7668 9.5885 10.7668C9.07728 10.7668 8.66386 11.254 8.66386 11.8532C8.66386 12.8108 8.95726 13.7068 9.49514 14.3788C9.91745 14.9052 10.322 15.1964 10.9488 15.4148C11.0688 15.454 11.1355 15.6108 11.1044 15.7564C11.0821 15.8852 10.9888 15.9692 10.8954 15.9692Z" fill="#144C5F"/>
</svg>
