<svg width="20" height="19" viewBox="0 0 20 19" fill="none" xmlns="http://www.w3.org/2000/svg">
<ellipse cx="10" cy="9.5" rx="10" ry="9.5" fill="#144C5F"/>
<path d="M12.1846 5.8448C12.149 5.8448 12.1135 5.83416 12.0823 5.81288C11.2288 5.2862 10.4909 5.06276 9.60628 5.06276C8.7261 5.06276 7.89037 5.3128 7.13022 5.81288C7.02353 5.88204 6.89017 5.83416 6.82793 5.70648C6.77014 5.5788 6.81015 5.41388 6.91684 5.34472C7.74367 4.8074 8.65053 4.53076 9.60628 4.53076C10.5531 4.53076 11.38 4.7808 12.2868 5.3394C12.398 5.40856 12.438 5.56816 12.3802 5.69584C12.3402 5.7916 12.2646 5.8448 12.1846 5.8448ZM5.82328 8.6378C5.77883 8.6378 5.73437 8.62184 5.69437 8.58992C5.59212 8.5048 5.5699 8.33988 5.64102 8.21752C6.08111 7.47272 6.64123 6.88752 7.30803 6.47788C8.70387 5.61604 10.4909 5.61072 11.8912 6.47256C12.558 6.8822 13.1181 7.46208 13.5582 8.20156C13.6293 8.3186 13.6071 8.48884 13.5049 8.57396C13.4026 8.65908 13.2648 8.63248 13.1937 8.51012C12.7936 7.8398 12.2868 7.31312 11.6867 6.94604C10.4109 6.164 8.77944 6.164 7.50807 6.95136C6.9035 7.32376 6.39673 7.85576 5.99665 8.52608C5.96109 8.60056 5.89441 8.6378 5.82328 8.6378ZM8.60163 15.059C8.54384 15.059 8.48605 15.0324 8.44604 14.9792C8.05929 14.5164 7.85036 14.2185 7.55252 13.5748C7.24579 12.9204 7.08576 12.1224 7.08576 11.2659C7.08576 9.68584 8.21488 8.3984 9.60183 8.3984C10.9888 8.3984 12.1179 9.68584 12.1179 11.2659C12.1179 11.4148 12.0201 11.5319 11.8956 11.5319C11.7712 11.5319 11.6734 11.4148 11.6734 11.2659C11.6734 9.97844 10.7443 8.9304 9.60183 8.9304C8.45938 8.9304 7.5303 9.97844 7.5303 11.2659C7.5303 12.032 7.67255 12.7395 7.94372 13.3141C8.22822 13.9259 8.42381 14.1866 8.76611 14.6015C8.85057 14.7079 8.85057 14.8728 8.76611 14.9792C8.71721 15.0324 8.65942 15.059 8.60163 15.059ZM11.7889 14.0748C11.2599 14.0748 10.7932 13.9152 10.4109 13.6014C9.74853 13.064 9.35289 12.1916 9.35289 11.2659C9.35289 11.1169 9.45069 10.9999 9.57516 10.9999C9.69963 10.9999 9.79743 11.1169 9.79743 11.2659C9.79743 12.016 10.1175 12.7236 10.6598 13.1598C10.9754 13.4152 11.3444 13.5375 11.7889 13.5375C11.8956 13.5375 12.0734 13.5216 12.2513 13.4843C12.3713 13.4577 12.4869 13.5535 12.5091 13.7024C12.5313 13.8461 12.4513 13.9844 12.3268 14.011C12.0734 14.0695 11.8512 14.0748 11.7889 14.0748ZM10.8954 15.1708C10.8776 15.1708 10.8554 15.1654 10.8376 15.1601C10.1308 14.926 9.66851 14.6122 9.18397 14.0429C8.56162 13.3034 8.21933 12.3192 8.21933 11.2659C8.21933 10.404 8.83279 9.7018 9.5885 9.7018C10.3442 9.7018 10.9577 10.404 10.9577 11.2659C10.9577 11.8351 11.3711 12.298 11.8823 12.298C12.3935 12.298 12.8069 11.8351 12.8069 11.2659C12.8069 9.26024 11.3622 7.63232 9.58405 7.63232C8.32157 7.63232 7.16578 8.47288 6.64567 9.77628C6.4723 10.2072 6.3834 10.7126 6.3834 11.2659C6.3834 11.6808 6.41451 12.3352 6.68123 13.1864C6.72569 13.3247 6.6679 13.479 6.55232 13.5269C6.43674 13.5801 6.30782 13.5056 6.26782 13.3726C6.04999 12.6757 5.94331 11.9841 5.94331 11.2659C5.94331 10.6275 6.04555 10.0476 6.24559 9.5422C6.83682 8.05792 8.1482 7.095 9.58405 7.095C11.6067 7.095 13.2515 8.96232 13.2515 11.2606C13.2515 12.1224 12.638 12.8246 11.8823 12.8246C11.1266 12.8246 10.5131 12.1224 10.5131 11.2606C10.5131 10.6913 10.0997 10.2285 9.5885 10.2285C9.07728 10.2285 8.66386 10.6913 8.66386 11.2606C8.66386 12.1703 8.95726 13.0215 9.49514 13.6599C9.91745 14.16 10.322 14.4366 10.9488 14.6441C11.0688 14.6813 11.1355 14.8303 11.1044 14.9686C11.0821 15.091 10.9888 15.1708 10.8954 15.1708Z" fill="#5AC6AD"/>
</svg>
