<svg width="26" height="26" viewBox="0 0 26 26" fill="none" xmlns="http://www.w3.org/2000/svg">
<path fill-rule="evenodd" clip-rule="evenodd" d="M12.7137 26C19.7353 26 25.4274 20.1797 25.4274 13C25.4274 5.82029 19.7353 0 12.7137 0C5.69212 0 0 5.82029 0 13C0 20.1797 5.69212 26 12.7137 26Z" fill="#FEFEFE"/>
<rect x="6.35938" y="6.61328" width="5.91206" height="13.1678" rx="0.26873" fill="#26A69A"/>
<path d="M15.9523 12.6533C17.5397 12.6533 18.8266 11.3012 18.8266 9.6333C18.8266 7.96539 17.5397 6.61328 15.9523 6.61328C14.365 6.61328 13.0781 7.96539 13.0781 9.6333C13.0781 11.3012 14.365 12.6533 15.9523 12.6533Z" fill="#9BD9C3"/>
<path d="M18.9855 19.5117C18.9907 19.66 18.8699 19.7808 18.7215 19.7808H13.3469C13.1984 19.7808 13.0781 19.6604 13.0781 19.512V13.3312C13.0781 13.1828 13.1987 13.0618 13.3469 13.0693C16.4088 13.225 18.8648 16.0276 18.9855 19.5117Z" fill="#9BD9C3"/>
</svg>
