<svg width="68" height="66" viewBox="0 0 68 66" fill="none" xmlns="http://www.w3.org/2000/svg">
<path d="M35.2083 6.4165V28.0832H56.875C56.875 16.1123 47.1792 6.4165 35.2083 6.4165ZM52.325 44.0353C55.1687 40.379 56.875 35.7748 56.875 30.7915H17.4417L14.8687 25.3748H5.41666V30.7915H11.4292C11.4292 30.7915 16.5479 41.8144 17.1708 42.7623C14.1917 44.3603 12.1875 47.5019 12.1875 51.104C12.1875 56.3311 16.4396 60.5832 21.6667 60.5832C26.4333 60.5832 30.3875 57.0623 31.0375 52.4582H36.6708C37.3208 57.0623 41.275 60.5832 46.0417 60.5832C51.2687 60.5832 55.5208 56.3311 55.5208 51.104C55.5208 48.2873 54.275 45.7686 52.325 44.0353ZM21.6667 55.1665C19.4187 55.1665 17.6042 53.3519 17.6042 51.104C17.6042 48.8561 19.4187 47.0415 21.6667 47.0415C23.9146 47.0415 25.7292 48.8561 25.7292 51.104C25.7292 53.3519 23.9146 55.1665 21.6667 55.1665ZM46.0417 55.1665C43.7937 55.1665 41.9792 53.3519 41.9792 51.104C41.9792 48.8561 43.7937 47.0415 46.0417 47.0415C48.2896 47.0415 50.1042 48.8561 50.1042 51.104C50.1042 53.3519 48.2896 55.1665 46.0417 55.1665Z" fill="#323232"/>
<path d="M38.2083 5.4165V27.0832H59.875C59.875 15.1123 50.1792 5.4165 38.2083 5.4165ZM55.325 43.0353C58.1687 39.379 59.875 34.7748 59.875 29.7915H20.4417L17.8687 24.3748H8.41666V29.7915H14.4292C14.4292 29.7915 19.5479 40.8144 20.1708 41.7623C17.1917 43.3603 15.1875 46.5019 15.1875 50.104C15.1875 55.3311 19.4396 59.5832 24.6667 59.5832C29.4333 59.5832 33.3875 56.0623 34.0375 51.4582H39.6708C40.3208 56.0623 44.275 59.5832 49.0417 59.5832C54.2687 59.5832 58.5208 55.3311 58.5208 50.104C58.5208 47.2873 57.275 44.7686 55.325 43.0353ZM24.6667 54.1665C22.4187 54.1665 20.6042 52.3519 20.6042 50.104C20.6042 47.8561 22.4187 46.0415 24.6667 46.0415C26.9146 46.0415 28.7292 47.8561 28.7292 50.104C28.7292 52.3519 26.9146 54.1665 24.6667 54.1665ZM49.0417 54.1665C46.7937 54.1665 44.9792 52.3519 44.9792 50.104C44.9792 47.8561 46.7937 46.0415 49.0417 46.0415C51.2896 46.0415 53.1042 47.8561 53.1042 50.104C53.1042 52.3519 51.2896 54.1665 49.0417 54.1665Z" fill="#26A69A"/>
</svg>
