<svg width="19" height="19" viewBox="0 0 19 19" fill="none" xmlns="http://www.w3.org/2000/svg">
<ellipse cx="9.35079" cy="9.5" rx="9.35079" ry="9.5" fill="#D2F6F2"/>
<path d="M11.5779 5.31733C11.5434 5.31733 11.5088 5.30667 11.4786 5.28533C10.6495 4.75733 9.93276 4.53333 9.07349 4.53333C8.21853 4.53333 7.40675 4.784 6.66838 5.28533C6.56475 5.35467 6.43521 5.30667 6.37476 5.17867C6.31863 5.05067 6.35749 4.88533 6.46112 4.816C7.26426 4.27733 8.14512 4 9.07349 4C9.99321 4 10.7964 4.25067 11.6772 4.81067C11.7852 4.88 11.824 5.04 11.7679 5.168C11.729 5.264 11.6556 5.31733 11.5779 5.31733ZM5.3989 8.11733C5.35572 8.11733 5.31254 8.10133 5.27368 8.06933C5.17437 7.984 5.15278 7.81867 5.22187 7.696C5.64934 6.94933 6.19341 6.36267 6.8411 5.952C8.19694 5.088 9.93276 5.08267 11.2929 5.94667C11.9406 6.35733 12.4847 6.93867 12.9122 7.68C12.9812 7.79733 12.9596 7.968 12.8603 8.05333C12.761 8.13867 12.6272 8.112 12.5581 7.98933C12.1695 7.31733 11.6772 6.78933 11.0943 6.42133C9.85504 5.63733 8.27035 5.63733 7.03541 6.42667C6.44817 6.8 5.95592 7.33333 5.5673 8.00533C5.53276 8.08 5.46799 8.11733 5.3989 8.11733ZM8.09763 14.5547C8.04149 14.5547 7.98536 14.528 7.9465 14.4747C7.57084 14.0107 7.36789 13.712 7.07859 13.0667C6.78065 12.4107 6.6252 11.6107 6.6252 10.752C6.6252 9.168 7.72196 7.87733 9.06917 7.87733C10.4164 7.87733 11.5131 9.168 11.5131 10.752C11.5131 10.9013 11.4181 11.0187 11.2972 11.0187C11.1763 11.0187 11.0813 10.9013 11.0813 10.752C11.0813 9.46133 10.1789 8.41067 9.06917 8.41067C7.95945 8.41067 7.057 9.46133 7.057 10.752C7.057 11.52 7.19517 12.2293 7.45857 12.8053C7.73492 13.4187 7.92491 13.68 8.25739 14.096C8.33943 14.2027 8.33943 14.368 8.25739 14.4747C8.20989 14.528 8.15376 14.5547 8.09763 14.5547ZM11.1936 13.568C10.6798 13.568 10.2264 13.408 9.85504 13.0933C9.21166 12.5547 8.82736 11.68 8.82736 10.752C8.82736 10.6027 8.92236 10.4853 9.04326 10.4853C9.16416 10.4853 9.25916 10.6027 9.25916 10.752C9.25916 11.504 9.57005 12.2133 10.0968 12.6507C10.4034 12.9067 10.7618 13.0293 11.1936 13.0293C11.2972 13.0293 11.47 13.0133 11.6427 12.976C11.7593 12.9493 11.8715 13.0453 11.8931 13.1947C11.9147 13.3387 11.837 13.4773 11.7161 13.504C11.47 13.5627 11.2541 13.568 11.1936 13.568ZM10.3257 14.6667C10.3084 14.6667 10.2868 14.6613 10.2696 14.656C9.583 14.4213 9.13394 14.1067 8.66328 13.536C8.05877 12.7947 7.72628 11.808 7.72628 10.752C7.72628 9.888 8.32216 9.184 9.05621 9.184C9.79027 9.184 10.3861 9.888 10.3861 10.752C10.3861 11.3227 10.7877 11.7867 11.2843 11.7867C11.7808 11.7867 12.1824 11.3227 12.1824 10.752C12.1824 8.74133 10.7791 7.10933 9.0519 7.10933C7.8256 7.10933 6.70293 7.952 6.19772 9.25867C6.02932 9.69067 5.94297 10.1973 5.94297 10.752C5.94297 11.168 5.97319 11.824 6.23227 12.6773C6.27545 12.816 6.21931 12.9707 6.10705 13.0187C5.99478 13.072 5.86956 12.9973 5.8307 12.864C5.61912 12.1653 5.51549 11.472 5.51549 10.752C5.51549 10.112 5.6148 9.53067 5.80911 9.024C6.3834 7.536 7.65719 6.57067 9.0519 6.57067C11.0166 6.57067 12.6142 8.44267 12.6142 10.7467C12.6142 11.6107 12.0183 12.3147 11.2843 12.3147C10.5502 12.3147 9.95435 11.6107 9.95435 10.7467C9.95435 10.176 9.55278 9.712 9.05621 9.712C8.55965 9.712 8.15808 10.176 8.15808 10.7467C8.15808 11.6587 8.44306 12.512 8.96554 13.152C9.37574 13.6533 9.76868 13.9307 10.3775 14.1387C10.4941 14.176 10.5589 14.3253 10.5286 14.464C10.507 14.5867 10.4164 14.6667 10.3257 14.6667Z" fill="#00B5AB"/>
</svg>
