<svg width="149" height="135" viewBox="0 0 149 135" fill="none" xmlns="http://www.w3.org/2000/svg">
<rect width="149" height="135" rx="2.21277" fill="#26A69A"/>
<path d="M137.776 27C137.776 35.2843 130.924 42 122.472 42C114.02 42 107.168 35.2843 107.168 27C107.168 18.7157 114.02 12 122.472 12C130.924 12 137.776 18.7157 137.776 27Z" fill="#B1E7E1"/>
<path d="M126.25 20.0995C126.191 20.0995 126.132 20.0825 126.08 20.0485C124.665 19.207 123.442 18.85 121.975 18.85C120.516 18.85 119.13 19.2495 117.87 20.0485C117.693 20.159 117.472 20.0825 117.369 19.8785C117.273 19.6745 117.339 19.411 117.516 19.3005C118.887 18.442 120.39 18 121.975 18C123.545 18 124.916 18.3995 126.419 19.292C126.603 19.4025 126.67 19.6575 126.574 19.8615C126.507 20.0145 126.382 20.0995 126.25 20.0995ZM115.703 24.562C115.629 24.562 115.555 24.5365 115.489 24.4855C115.32 24.3495 115.283 24.086 115.401 23.8905C116.13 22.7005 117.059 21.7655 118.164 21.111C120.479 19.734 123.442 19.7255 125.763 21.1025C126.869 21.757 127.797 22.6835 128.527 23.865C128.645 24.052 128.608 24.324 128.438 24.46C128.269 24.596 128.04 24.5535 127.923 24.358C127.259 23.287 126.419 22.4455 125.424 21.859C123.309 20.6095 120.604 20.6095 118.496 21.8675C117.494 22.4625 116.654 23.3125 115.99 24.3835C115.931 24.5025 115.821 24.562 115.703 24.562ZM120.309 34.8215C120.213 34.8215 120.118 34.779 120.051 34.694C119.41 33.9545 119.064 33.4785 118.57 32.45C118.061 31.4045 117.796 30.1295 117.796 28.761C117.796 26.2365 119.668 24.1795 121.967 24.1795C124.267 24.1795 126.139 26.2365 126.139 28.761C126.139 28.999 125.977 29.186 125.77 29.186C125.564 29.186 125.402 28.999 125.402 28.761C125.402 26.704 123.862 25.0295 121.967 25.0295C120.073 25.0295 118.533 26.704 118.533 28.761C118.533 29.985 118.769 31.1155 119.218 32.0335C119.69 33.011 120.014 33.4275 120.582 34.0905C120.722 34.2605 120.722 34.524 120.582 34.694C120.501 34.779 120.405 34.8215 120.309 34.8215ZM125.594 33.249C124.717 33.249 123.943 32.994 123.309 32.4925C122.211 31.634 121.555 30.24 121.555 28.761C121.555 28.523 121.717 28.336 121.923 28.336C122.13 28.336 122.292 28.523 122.292 28.761C122.292 29.9595 122.822 31.09 123.722 31.787C124.245 32.195 124.857 32.3905 125.594 32.3905C125.77 32.3905 126.065 32.365 126.36 32.3055C126.559 32.263 126.751 32.416 126.788 32.654C126.824 32.8835 126.692 33.1045 126.485 33.147C126.065 33.2405 125.697 33.249 125.594 33.249ZM124.112 35C124.083 35 124.046 34.9915 124.016 34.983C122.845 34.609 122.078 34.1075 121.275 33.198C120.243 32.0165 119.675 30.444 119.675 28.761C119.675 27.384 120.692 26.262 121.945 26.262C123.198 26.262 124.215 27.384 124.215 28.761C124.215 29.6705 124.901 30.41 125.748 30.41C126.596 30.41 127.281 29.6705 127.281 28.761C127.281 25.5565 124.886 22.9555 121.938 22.9555C119.845 22.9555 117.929 24.2985 117.066 26.381C116.779 27.0695 116.632 27.877 116.632 28.761C116.632 29.424 116.683 30.4695 117.125 31.8295C117.199 32.0505 117.103 32.297 116.912 32.3735C116.72 32.4585 116.506 32.3395 116.44 32.127C116.079 31.0135 115.902 29.9085 115.902 28.761C115.902 27.741 116.071 26.8145 116.403 26.007C117.383 23.6355 119.557 22.097 121.938 22.097C125.291 22.097 128.018 25.0805 128.018 28.7525C128.018 30.1295 127.001 31.2515 125.748 31.2515C124.495 31.2515 123.478 30.1295 123.478 28.7525C123.478 27.843 122.793 27.1035 121.945 27.1035C121.098 27.1035 120.412 27.843 120.412 28.7525C120.412 30.206 120.899 31.566 121.791 32.586C122.491 33.385 123.161 33.827 124.201 34.1585C124.4 34.218 124.51 34.456 124.459 34.677C124.422 34.8725 124.267 35 124.112 35Z" fill="#26A69A"/>
<path d="M28.036 65.93C28.2853 65.93 28.4893 66.015 28.648 66.185C28.8067 66.3437 28.886 66.5533 28.886 66.814V77.252C28.886 77.5127 28.8123 77.7167 28.665 77.864C28.529 78.0113 28.3363 78.085 28.087 78.085C27.849 78.085 27.662 78.0113 27.526 77.864C27.39 77.7167 27.322 77.5127 27.322 77.252V69.347L23.99 75.688C23.7747 76.0847 23.497 76.283 23.157 76.283C22.817 76.283 22.5393 76.0847 22.324 75.688L18.975 69.415V77.252C18.975 77.5127 18.907 77.7167 18.771 77.864C18.635 78.0113 18.4423 78.085 18.193 78.085C17.955 78.085 17.7623 78.0113 17.615 77.864C17.479 77.7053 17.411 77.5013 17.411 77.252V66.814C17.411 66.5533 17.4903 66.3437 17.649 66.185C17.8077 66.015 18.0117 65.93 18.261 65.93C18.6123 65.93 18.8957 66.134 19.111 66.542L23.174 74.311L27.203 66.542C27.4183 66.134 27.696 65.93 28.036 65.93ZM40.1849 66.236C40.3436 66.032 40.5419 65.93 40.7799 65.93C40.9839 65.93 41.1653 66.015 41.3239 66.185C41.4939 66.3437 41.5789 66.5307 41.5789 66.746C41.5789 66.95 41.5109 67.1257 41.3749 67.273L37.3629 72.271V77.201C37.3629 77.4843 37.2779 77.7053 37.1079 77.864C36.9493 78.0113 36.7396 78.085 36.4789 78.085C36.2183 78.085 36.0086 78.0113 35.8499 77.864C35.6913 77.7053 35.6119 77.4843 35.6119 77.201V72.271L31.5999 67.273C31.4639 67.1257 31.3959 66.9443 31.3959 66.729C31.3959 66.5137 31.4753 66.3267 31.6339 66.168C31.7926 66.0093 31.9796 65.93 32.1949 65.93C32.4216 65.93 32.6199 66.032 32.7899 66.236L36.4959 70.894L40.1849 66.236ZM26.744 97.912C26.846 98.0593 26.897 98.218 26.897 98.388C26.897 98.592 26.812 98.7677 26.642 98.915C26.4833 99.051 26.2963 99.119 26.081 99.119C25.7637 99.119 25.5087 98.9773 25.316 98.694L23.038 95.158C22.7773 94.75 22.4997 94.4667 22.205 94.308C21.9103 94.138 21.525 94.053 21.049 94.053H19.128V98.201C19.128 98.473 19.0487 98.6883 18.89 98.847C18.7427 99.0057 18.533 99.085 18.261 99.085C18.0003 99.085 17.7907 99.0057 17.632 98.847C17.4733 98.6883 17.394 98.473 17.394 98.201V87.865C17.394 87.6043 17.4677 87.4003 17.615 87.253C17.7737 87.0943 17.989 87.015 18.261 87.015H22.494C23.82 87.015 24.8287 87.3097 25.52 87.899C26.2227 88.4883 26.574 89.3497 26.574 90.483C26.574 91.4237 26.3077 92.1887 25.775 92.778C25.2423 93.356 24.483 93.7243 23.497 93.883C23.7917 93.9623 24.058 94.104 24.296 94.308C24.534 94.512 24.7663 94.7953 24.993 95.158L26.744 97.912ZM22.29 92.642C23.174 92.642 23.8257 92.472 24.245 92.132C24.6757 91.7807 24.891 91.2423 24.891 90.517C24.891 89.7917 24.6813 89.2647 24.262 88.936C23.8427 88.596 23.1853 88.426 22.29 88.426H19.111V92.642H22.29ZM30.9983 99.085C30.7376 99.085 30.528 99.0057 30.3693 98.847C30.2106 98.6883 30.1313 98.473 30.1313 98.201V87.814C30.1313 87.5533 30.2106 87.3437 30.3693 87.185C30.528 87.015 30.7376 86.93 30.9983 86.93C31.2703 86.93 31.4856 87.0093 31.6443 87.168C31.803 87.3267 31.8823 87.542 31.8823 87.814V98.201C31.8823 98.473 31.803 98.6883 31.6443 98.847C31.497 99.0057 31.2816 99.085 30.9983 99.085ZM42.7185 92.829C43.4099 93.0217 43.9425 93.3673 44.3165 93.866C44.7019 94.3647 44.8945 94.988 44.8945 95.736C44.8945 96.7673 44.5375 97.572 43.8235 98.15C43.1209 98.7167 42.1349 99 40.8655 99H36.5305C36.2585 99 36.0432 98.9263 35.8845 98.779C35.7372 98.6203 35.6635 98.4107 35.6635 98.15V87.865C35.6635 87.6043 35.7372 87.4003 35.8845 87.253C36.0432 87.0943 36.2585 87.015 36.5305 87.015H40.6785C41.9139 87.015 42.8772 87.2927 43.5685 87.848C44.2712 88.392 44.6225 89.157 44.6225 90.143C44.6225 90.7777 44.4525 91.3273 44.1125 91.792C43.7839 92.2567 43.3192 92.6023 42.7185 92.829ZM37.3805 92.2H40.4065C42.0839 92.2 42.9225 91.5653 42.9225 90.296C42.9225 89.6613 42.7129 89.191 42.2935 88.885C41.8855 88.579 41.2565 88.426 40.4065 88.426H37.3805V92.2ZM40.6785 97.589C41.5512 97.589 42.1915 97.4303 42.5995 97.113C43.0075 96.7957 43.2115 96.3027 43.2115 95.634C43.2115 94.954 43.0019 94.4497 42.5825 94.121C42.1745 93.781 41.5399 93.611 40.6785 93.611H37.3805V97.589H40.6785ZM57.195 86.93C57.4443 86.93 57.6427 87.015 57.79 87.185C57.9487 87.3437 58.028 87.5533 58.028 87.814V98.201C58.028 98.4617 57.9487 98.677 57.79 98.847C57.6313 99.0057 57.4273 99.085 57.178 99.085C56.8833 99.085 56.6567 98.9717 56.498 98.745L49.834 89.956V98.201C49.834 98.4617 49.7547 98.677 49.596 98.847C49.4487 99.0057 49.2503 99.085 49.001 99.085C48.7517 99.085 48.5533 99.0057 48.406 98.847C48.2587 98.6883 48.185 98.473 48.185 98.201V87.814C48.185 87.5533 48.2643 87.3437 48.423 87.185C48.5817 87.015 48.7857 86.93 49.035 86.93C49.3297 86.93 49.5563 87.0433 49.715 87.27L56.379 96.076V87.814C56.379 87.5533 56.4527 87.3437 56.6 87.185C56.7473 87.015 56.9457 86.93 57.195 86.93ZM32.592 108.457C32.66 108.276 32.762 108.14 32.898 108.049C33.034 107.958 33.187 107.913 33.357 107.913C33.5723 107.913 33.7593 107.987 33.918 108.134C34.088 108.27 34.173 108.451 34.173 108.678C34.173 108.803 34.1503 108.916 34.105 109.018L30.348 119.524C30.2687 119.717 30.144 119.864 29.974 119.966C29.804 120.068 29.617 120.119 29.413 120.119C29.2203 120.119 29.039 120.068 28.869 119.966C28.699 119.864 28.58 119.717 28.512 119.524L25.418 110.752L22.256 119.524C22.188 119.717 22.069 119.864 21.899 119.966C21.729 120.068 21.5477 120.119 21.355 120.119C21.151 120.119 20.964 120.068 20.794 119.966C20.6353 119.864 20.5163 119.717 20.437 119.524L16.68 109.018C16.6347 108.916 16.612 108.803 16.612 108.678C16.612 108.451 16.697 108.27 16.867 108.134C17.037 107.987 17.241 107.913 17.479 107.913C17.649 107.913 17.802 107.958 17.938 108.049C18.0853 108.14 18.193 108.276 18.261 108.457L21.406 117.501L24.602 108.542C24.67 108.349 24.7777 108.202 24.925 108.1C25.0837 107.998 25.2537 107.947 25.435 107.947C25.6163 107.947 25.7807 108.004 25.928 108.117C26.0753 108.219 26.1887 108.366 26.268 108.559L29.396 117.586L32.592 108.457ZM46.6487 118.98C46.7053 119.116 46.7337 119.229 46.7337 119.32C46.7337 119.535 46.643 119.717 46.4617 119.864C46.2917 120.011 46.099 120.085 45.8837 120.085C45.7363 120.085 45.5947 120.045 45.4587 119.966C45.334 119.875 45.2377 119.751 45.1697 119.592L44.0477 117.042H37.8257L36.7037 119.592C36.6357 119.751 36.5337 119.875 36.3977 119.966C36.2617 120.045 36.12 120.085 35.9727 120.085C35.746 120.085 35.542 120.011 35.3607 119.864C35.1907 119.717 35.1057 119.535 35.1057 119.32C35.1057 119.229 35.134 119.116 35.1907 118.98L39.9847 108.491C40.064 108.31 40.1887 108.168 40.3587 108.066C40.54 107.964 40.727 107.913 40.9197 107.913C41.1123 107.913 41.2937 107.964 41.4637 108.066C41.645 108.168 41.7753 108.31 41.8547 108.491L46.6487 118.98ZM38.4547 115.648H43.4357L40.9367 110.021L38.4547 115.648ZM50.409 120C50.1484 120 49.9387 119.926 49.78 119.779C49.6327 119.632 49.559 119.433 49.559 119.184V108.814C49.559 108.553 49.6384 108.344 49.797 108.185C49.9557 108.015 50.1654 107.93 50.426 107.93C50.698 107.93 50.9134 108.009 51.072 108.168C51.2307 108.327 51.31 108.542 51.31 108.814V118.538H56.478C56.7387 118.538 56.937 118.6 57.073 118.725C57.2204 118.85 57.294 119.031 57.294 119.269C57.294 119.507 57.2204 119.688 57.073 119.813C56.937 119.938 56.7387 120 56.478 120H50.409ZM60.7059 120C60.4452 120 60.2356 119.926 60.0769 119.779C59.9296 119.632 59.8559 119.433 59.8559 119.184V108.814C59.8559 108.553 59.9352 108.344 60.0939 108.185C60.2526 108.015 60.4622 107.93 60.7229 107.93C60.9949 107.93 61.2102 108.009 61.3689 108.168C61.5276 108.327 61.6069 108.542 61.6069 108.814V118.538H66.7749C67.0356 118.538 67.2339 118.6 67.3699 118.725C67.5172 118.85 67.5909 119.031 67.5909 119.269C67.5909 119.507 67.5172 119.688 67.3699 119.813C67.2339 119.938 67.0356 120 66.7749 120H60.7059ZM71.0198 120C70.7478 120 70.5325 119.926 70.3738 119.779C70.2265 119.62 70.1528 119.411 70.1528 119.15V108.865C70.1528 108.604 70.2265 108.4 70.3738 108.253C70.5325 108.094 70.7478 108.015 71.0198 108.015H77.2758C77.5365 108.015 77.7348 108.077 77.8708 108.202C78.0181 108.327 78.0918 108.502 78.0918 108.729C78.0918 108.956 78.0181 109.131 77.8708 109.256C77.7348 109.369 77.5365 109.426 77.2758 109.426H71.8698V113.2H76.9358C77.1965 113.2 77.3948 113.262 77.5308 113.387C77.6781 113.512 77.7518 113.687 77.7518 113.914C77.7518 114.141 77.6781 114.316 77.5308 114.441C77.3948 114.566 77.1965 114.628 76.9358 114.628H71.8698V118.589H77.2758C77.8198 118.589 78.0918 118.821 78.0918 119.286C78.0918 119.513 78.0181 119.688 77.8708 119.813C77.7348 119.938 77.5365 120 77.2758 120H71.0198ZM84.7375 120.085C84.4768 120.085 84.2615 120.006 84.0915 119.847C83.9328 119.677 83.8535 119.462 83.8535 119.201V109.477H80.4535C79.9095 109.477 79.6375 109.233 79.6375 108.746C79.6375 108.508 79.7055 108.327 79.8415 108.202C79.9888 108.077 80.1928 108.015 80.4535 108.015H89.0215C89.2822 108.015 89.4805 108.077 89.6165 108.202C89.7638 108.327 89.8375 108.508 89.8375 108.746C89.8375 109.233 89.5655 109.477 89.0215 109.477H85.6215V119.201C85.6215 119.462 85.5422 119.677 85.3835 119.847C85.2248 120.006 85.0095 120.085 84.7375 120.085Z" fill="#FEFEFE"/>
</svg>
