<svg width="390" height="844" viewBox="0 0 390 844" fill="none" xmlns="http://www.w3.org/2000/svg">
<g clip-path="url(#clip0_3541_8250)">
<rect width="390" height="844" fill="#F8F8F8"/>
<mask id="mask0_3541_8250" style="mask-type:alpha" maskUnits="userSpaceOnUse" x="-16" y="0" width="554" height="926">
<rect x="-16" width="554" height="926" fill="#FEFEFE"/>
</mask>
<g mask="url(#mask0_3541_8250)">
<path d="M692.183 -306.721C483.36 -83.9034 301.211 -62.306 179.222 -246.179L148.945 -292.27C66.5568 -416.227 -34.2032 -472.196 -150.26 -458.61C-258.546 -446.08 -375.63 -373.526 -498.285 -242.751C-648.526 -82.8045 -798.046 155.473 -936.63 451.292L-920.183 827.25C-775.551 484.098 -614.91 211.401 -454.622 40.5985C-245.8 -182.219 -63.6508 -203.818 58.3383 -19.9448L88.6155 26.1471C171.004 150.105 271.764 206.073 387.82 192.488C496.106 179.957 613.191 107.404 735.846 -23.3713C751.357 -39.9005 766.548 -56.906 782.004 -74.7162L768.022 -394.314C742.631 -363.086 717.477 -333.302 692.183 -306.721Z" fill="url(#paint0_linear_3541_8250)"/>
<path d="M692.183 -306.721C483.36 -83.9034 301.211 -62.306 179.222 -246.179L148.945 -292.27C66.5568 -416.227 -34.2032 -472.196 -150.26 -458.61C-258.546 -446.08 -375.63 -373.526 -498.285 -242.751C-648.526 -82.8045 -798.046 155.473 -936.63 451.292L-920.183 827.25C-775.551 484.098 -614.91 211.401 -454.622 40.5985C-245.8 -182.219 -63.6508 -203.818 58.3383 -19.9448L88.6155 26.1471C171.004 150.105 271.764 206.073 387.82 192.488C496.106 179.957 613.191 107.404 735.846 -23.3713C751.357 -39.9005 766.548 -56.906 782.004 -74.7162L768.022 -394.314C742.631 -363.086 717.477 -333.302 692.183 -306.721Z" fill="url(#paint1_linear_3541_8250)"/>
<path d="M692.096 -6.44644C516.373 482.885 323.916 691.668 150.042 581.166L106.785 553.168C-10.5945 478.823 -132.459 508.598 -255.124 641.403C-369.608 765.132 -480.013 973.387 -583.249 1260.68C-709.757 1612.28 -817.72 2062.02 -900.785 2573.49L-797.701 3031.61C-718.819 2454.37 -606.612 1950.1 -471.679 1574.79C-295.957 1085.46 -103.5 876.672 70.3742 987.173L113.632 1015.17C231.011 1089.52 352.876 1059.74 475.54 926.938C590.025 803.209 700.429 594.954 803.665 307.665C816.723 271.344 829.325 234.743 842.032 196.861L754.401 -192.579C733.972 -127.861 713.473 -65.2021 692.096 -6.44644Z" fill="url(#paint2_linear_3541_8250)"/>
<path d="M917.994 -656.133C669.614 -290.185 446.054 -175.927 288.404 -334.696L249.258 -374.64C142.794 -481.6 16.4123 -498.965 -126.036 -426.373C-258.952 -358.814 -400.31 -215.768 -546.204 -0.941762C-724.92 261.915 -899.616 617.345 -1058.54 1035.71L-1023.25 1473.71C-858.767 996.25 -671.743 594.576 -481.082 313.952C-232.702 -51.9959 -9.14241 -166.256 148.508 -7.487L187.654 32.4588C294.118 139.419 420.5 156.784 562.948 84.1917C695.864 16.6331 837.222 -126.413 983.116 -341.239C1001.57 -368.396 1019.6 -395.962 1037.93 -424.612L1007.93 -796.95C977.897 -747.548 948.096 -699.974 917.994 -656.133Z" fill="url(#paint3_linear_3541_8250)"/>
<path d="M917.994 -656.133C669.614 -290.185 446.054 -175.927 288.404 -334.696L249.258 -374.64C142.794 -481.6 16.4123 -498.965 -126.036 -426.373C-258.952 -358.814 -400.31 -215.768 -546.204 -0.941762C-724.92 261.915 -899.616 617.345 -1058.54 1035.71L-1023.25 1473.71C-858.767 996.25 -671.743 594.576 -481.082 313.952C-232.702 -51.9959 -9.14241 -166.256 148.508 -7.487L187.654 32.4588C294.118 139.419 420.5 156.784 562.948 84.1917C695.864 16.6331 837.222 -126.413 983.116 -341.239C1001.57 -368.396 1019.6 -395.962 1037.93 -424.612L1007.93 -796.95C977.897 -747.548 948.096 -699.974 917.994 -656.133Z" fill="url(#paint4_linear_3541_8250)"/>
<path d="M807.738 -509.983C556.467 -73.675 328.808 87.012 166.601 -57.8201L126.32 -94.3443C16.7804 -191.873 -112.489 -189.43 -257.551 -87.2706C-392.907 7.86264 -536.364 185.829 -683.957 441.973C-864.757 755.421 -1040.8 1168.04 -1200.3 1645.91L-1161.18 2112.4C-996.423 1569.87 -808.1 1105.31 -615.218 770.697C-363.946 334.389 -136.288 173.7 25.9192 318.532L66.2006 355.058C175.74 452.587 305.01 450.144 450.071 347.984C585.428 252.851 728.885 74.8852 876.478 -181.259C895.144 -213.641 913.383 -246.395 931.916 -280.366L898.666 -676.931C868.317 -618.616 838.194 -562.312 807.738 -509.983Z" fill="url(#paint5_linear_3541_8250)"/>
<path d="M863.731 -267.978C608.909 205.85 371.243 391.318 194.402 253.96L150.471 219.271C31.0572 126.801 -106.464 139.829 -257.908 257.769C-399.226 367.62 -546.769 564.214 -696.452 842.392C-879.822 1182.82 -1055.26 1625.92 -1211.2 2135.49L-1156.07 2617.13C-996.397 2039.93 -809.393 1541.85 -613.775 1178.44C-358.952 704.617 -121.287 519.147 55.5535 656.504L99.4852 691.196C218.899 783.666 356.42 770.638 507.865 652.697C649.182 542.846 796.725 346.252 946.408 68.0753C965.339 32.9074 983.805 -2.61191 1002.55 -39.4208L955.683 -448.859C925.067 -385.791 894.634 -324.832 863.731 -267.978Z" fill="url(#paint6_linear_3541_8250)"/>
</g>
</g>
<defs>
<linearGradient id="paint0_linear_3541_8250" x1="-495.673" y1="-279.302" x2="1095.26" y2="100.606" gradientUnits="userSpaceOnUse">
<stop offset="0.252829" stop-color="#259E95"/>
<stop offset="1" stop-color="#155464"/>
</linearGradient>
<linearGradient id="paint1_linear_3541_8250" x1="-495.673" y1="-279.302" x2="1095.26" y2="100.606" gradientUnits="userSpaceOnUse">
<stop offset="0.302075" stop-color="#259E95"/>
<stop offset="1" stop-color="#155464"/>
</linearGradient>
<linearGradient id="paint2_linear_3541_8250" x1="-632.293" y1="1112.58" x2="457.703" y2="1072.1" gradientUnits="userSpaceOnUse">
<stop offset="0.0338522" stop-color="#259E95"/>
<stop offset="0.27742" stop-color="#259E95"/>
<stop offset="1" stop-color="#155464"/>
</linearGradient>
<linearGradient id="paint3_linear_3541_8250" x1="-544.447" y1="-45.5727" x2="1297.57" y2="313.982" gradientUnits="userSpaceOnUse">
<stop offset="0.252829" stop-color="#259E95"/>
<stop offset="1" stop-color="#155464"/>
</linearGradient>
<linearGradient id="paint4_linear_3541_8250" x1="-544.447" y1="-45.5724" x2="1335.59" y2="271.803" gradientUnits="userSpaceOnUse">
<stop offset="0.104151" stop-color="#269F96"/>
<stop offset="1" stop-color="#155464"/>
</linearGradient>
<linearGradient id="paint5_linear_3541_8250" x1="-456.162" y1="67.6945" x2="515.682" y2="152.289" gradientUnits="userSpaceOnUse">
<stop stop-color="#259E95"/>
<stop offset="0.979553" stop-color="#155464"/>
</linearGradient>
<linearGradient id="paint6_linear_3541_8250" x1="-592.861" y1="562.776" x2="451.91" y2="630.812" gradientUnits="userSpaceOnUse">
<stop stop-color="#259E95"/>
<stop offset="1" stop-color="#155464"/>
</linearGradient>
<clipPath id="clip0_3541_8250">
<rect width="390" height="844" fill="white"/>
</clipPath>
</defs>
</svg>
