<svg width="31" height="32" viewBox="0 0 31 32" fill="none" xmlns="http://www.w3.org/2000/svg">
<rect y="9.74414" width="22.2558" height="22.2558" rx="3.06977" fill="#323232"/>
<rect x="1" y="9" width="22" height="22" rx="3.06977" fill="#00B5AB"/>
<g clip-path="url(#clip0_1328:3852)">
<path d="M6.29938 22.9747V24.2857H19.4098V22.9747H6.29938ZM6.29938 19.697V21.0081H19.4098V19.697H6.29938ZM6.29938 16.4194V17.7305H19.4098V16.4194H6.29938Z" fill="white"/>
</g>
<path d="M16.1105 12.135V14.7731H18.7486L26.5291 6.99253L23.8911 4.35445L16.1105 12.135ZM28.5693 4.95242C28.8436 4.67806 28.8436 4.23486 28.5693 3.9605L26.9231 2.31434C26.6487 2.03998 26.2055 2.03998 25.9312 2.31434L24.6438 3.60172L27.2819 6.2398L28.5693 4.95242Z" fill="#323232"/>
<defs>
<clipPath id="clip0_1328:3852">
<rect width="15.7326" height="15.7326" fill="white" transform="translate(4.98828 12.814)"/>
</clipPath>
</defs>
</svg>
