<svg width="80" height="73" viewBox="0 0 80 73" fill="none" xmlns="http://www.w3.org/2000/svg">
<rect x="9" y="9" width="60" height="60" rx="8" fill="#323232"/>
<rect x="20" y="19" width="43" height="42.2833" rx="5.73333" fill="white"/>
<path d="M62.7778 9.4H49.7733C48.4667 5.688 45.0444 3 41 3C36.9556 3 33.5333 5.688 32.2267 9.4H19.2222C15.8 9.4 13 12.28 13 15.8V60.6C13 64.12 15.8 67 19.2222 67H62.7778C66.2 67 69 64.12 69 60.6V15.8C69 12.28 66.2 9.4 62.7778 9.4ZM41 9.4C42.7111 9.4 44.1111 10.84 44.1111 12.6C44.1111 14.36 42.7111 15.8 41 15.8C39.2889 15.8 37.8889 14.36 37.8889 12.6C37.8889 10.84 39.2889 9.4 41 9.4ZM34.7778 54.2L22.3333 41.4L26.72 36.888L34.7778 45.144L55.28 24.056L59.6667 28.6L34.7778 54.2Z" fill="#26A69A"/>
</svg>
