<svg width="23" height="21" viewBox="0 0 23 21" fill="none" xmlns="http://www.w3.org/2000/svg">
    <path d="M16.292 10.5c-2.645 0-4.791 1.96-4.791 4.375s2.146 4.375 4.791 4.375c2.645 0 4.792-1.96 4.792-4.375S18.937 10.5 16.292 10.5zm1.582 6.431-2.06-1.881v-2.8h.957v2.441l1.773 1.619-.67.621zM17.25 2.625h-3.048c-.402-1.015-1.457-1.75-2.702-1.75-1.246 0-2.3.735-2.703 1.75H5.751c-1.055 0-1.917.788-1.917 1.75V17.5c0 .962.862 1.75 1.917 1.75h5.855a5.94 5.94 0 0 1-1.36-1.75H5.75V4.375h1.916V7h7.667V4.375h1.917V8.82a7.22 7.22 0 0 1 1.916.525v-4.97c0-.962-.862-1.75-1.916-1.75zm-5.75 1.75c-.527 0-.959-.394-.959-.875s.432-.875.959-.875c.527 0 .958.394.958.875s-.431.875-.958.875z" fill="#26A69A"/>
</svg>
