<svg width="12" height="12" viewBox="0 0 12 12" fill="none" xmlns="http://www.w3.org/2000/svg">
    <path d="M6 3.5A2.5 2.5 0 0 1 8.5 6c0 .325-.065.63-.18.915l1.46 1.46A5.909 5.909 0 0 0 11.495 6a5.913 5.913 0 0 0-5.5-3.75c-.7 0-1.37.125-1.99.35l1.08 1.08c.285-.115.59-.18.915-.18zM1 2.135l1.14 1.14.23.23A5.902 5.902 0 0 0 .5 6a5.913 5.913 0 0 0 7.69 3.33l.21.21L9.865 11l.635-.635L1.635 1.5 1 2.135zM3.765 4.9l.775.775A1.41 1.41 0 0 0 4.5 6c0 .83.67 1.5 1.5 1.5.11 0 .22-.015.325-.04l.775.775A2.478 2.478 0 0 1 6 8.5 2.5 2.5 0 0 1 3.5 6c0-.395.1-.765.265-1.1zm2.155-.39 1.575 1.575.01-.08c0-.83-.67-1.5-1.5-1.5l-.085.005z" fill="#323232"/>
</svg>
