<svg width="83" height="73" viewBox="0 0 83 73" fill="none" xmlns="http://www.w3.org/2000/svg">
<path d="M69.1979 54.75V57.7917C69.1979 61.1375 66.2323 63.875 62.6076 63.875H16.4757C12.818 63.875 9.88538 61.1375 9.88538 57.7917V15.2083C9.88538 11.8625 12.818 9.125 16.4757 9.125H62.6076C66.2323 9.125 69.1979 11.8625 69.1979 15.2083V18.25H39.5416C35.884 18.25 32.9513 20.9875 32.9513 24.3333V48.6667C32.9513 52.0125 35.884 54.75 39.5416 54.75H69.1979ZM39.5416 48.6667H72.493V24.3333H39.5416V48.6667ZM52.7222 41.0625C49.9872 41.0625 47.7795 39.0246 47.7795 36.5C47.7795 33.9754 49.9872 31.9375 52.7222 31.9375C55.4571 31.9375 57.6649 33.9754 57.6649 36.5C57.6649 39.0246 55.4571 41.0625 52.7222 41.0625Z" fill="#323232"/>
<path d="M72.1979 54.75V57.7917C72.1979 61.1375 69.2323 63.875 65.6076 63.875H19.4757C15.818 63.875 12.8854 61.1375 12.8854 57.7917V15.2083C12.8854 11.8625 15.818 9.125 19.4757 9.125H65.6076C69.2323 9.125 72.1979 11.8625 72.1979 15.2083V18.25H42.5416C38.884 18.25 35.9513 20.9875 35.9513 24.3333V48.6667C35.9513 52.0125 38.884 54.75 42.5416 54.75H72.1979ZM42.5416 48.6667H75.493V24.3333H42.5416V48.6667ZM55.7222 41.0625C52.9872 41.0625 50.7795 39.0246 50.7795 36.5C50.7795 33.9754 52.9872 31.9375 55.7222 31.9375C58.4571 31.9375 60.6649 33.9754 60.6649 36.5C60.6649 39.0246 58.4571 41.0625 55.7222 41.0625Z" fill="#26A69A"/>
<rect x="48" y="28" width="14" height="14" fill="#26A69A"/>
<path d="M58.6998 34.75C58.0062 32.7113 56.1284 31.25 53.9208 31.25C51.1211 31.25 48.8458 33.6037 48.8458 36.5C48.8458 39.3962 51.1211 41.75 53.9208 41.75C56.1284 41.75 58.0062 40.2887 58.6998 38.25H62.3792V41.75H65.7625V38.25H67.4542V34.75H58.6998ZM53.9208 38.25C52.9904 38.25 52.2292 37.4625 52.2292 36.5C52.2292 35.5375 52.9904 34.75 53.9208 34.75C54.8512 34.75 55.6125 35.5375 55.6125 36.5C55.6125 37.4625 54.8512 38.25 53.9208 38.25Z" fill="white"/>
</svg>
