<svg width="147" height="135" viewBox="0 0 147 135" fill="none" xmlns="http://www.w3.org/2000/svg">
<rect width="147" height="135" rx="2.21277" fill="#B1E7E1"/>
<path d="M133.776 27C133.776 35.2843 126.924 42 118.472 42C110.02 42 103.168 35.2843 103.168 27C103.168 18.7157 110.02 12 118.472 12C126.924 12 133.776 18.7157 133.776 27Z" fill="#26A69A"/>
<path d="M122.25 20.0995C122.191 20.0995 122.132 20.0825 122.08 20.0485C120.665 19.207 119.442 18.85 117.975 18.85C116.516 18.85 115.13 19.2495 113.87 20.0485C113.693 20.159 113.472 20.0825 113.369 19.8785C113.273 19.6745 113.339 19.411 113.516 19.3005C114.887 18.442 116.39 18 117.975 18C119.545 18 120.916 18.3995 122.419 19.292C122.603 19.4025 122.67 19.6575 122.574 19.8615C122.507 20.0145 122.382 20.0995 122.25 20.0995ZM111.703 24.562C111.629 24.562 111.555 24.5365 111.489 24.4855C111.32 24.3495 111.283 24.086 111.401 23.8905C112.13 22.7005 113.059 21.7655 114.164 21.111C116.479 19.734 119.442 19.7255 121.763 21.1025C122.869 21.757 123.797 22.6835 124.527 23.865C124.645 24.052 124.608 24.324 124.438 24.46C124.269 24.596 124.04 24.5535 123.923 24.358C123.259 23.287 122.419 22.4455 121.424 21.859C119.309 20.6095 116.604 20.6095 114.496 21.8675C113.494 22.4625 112.654 23.3125 111.99 24.3835C111.931 24.5025 111.821 24.562 111.703 24.562ZM116.309 34.8215C116.213 34.8215 116.118 34.779 116.051 34.694C115.41 33.9545 115.064 33.4785 114.57 32.45C114.061 31.4045 113.796 30.1295 113.796 28.761C113.796 26.2365 115.668 24.1795 117.967 24.1795C120.267 24.1795 122.139 26.2365 122.139 28.761C122.139 28.999 121.977 29.186 121.77 29.186C121.564 29.186 121.402 28.999 121.402 28.761C121.402 26.704 119.862 25.0295 117.967 25.0295C116.073 25.0295 114.533 26.704 114.533 28.761C114.533 29.985 114.769 31.1155 115.218 32.0335C115.69 33.011 116.014 33.4275 116.582 34.0905C116.722 34.2605 116.722 34.524 116.582 34.694C116.501 34.779 116.405 34.8215 116.309 34.8215ZM121.594 33.249C120.717 33.249 119.943 32.994 119.309 32.4925C118.211 31.634 117.555 30.24 117.555 28.761C117.555 28.523 117.717 28.336 117.923 28.336C118.13 28.336 118.292 28.523 118.292 28.761C118.292 29.9595 118.822 31.09 119.722 31.787C120.245 32.195 120.857 32.3905 121.594 32.3905C121.77 32.3905 122.065 32.365 122.36 32.3055C122.559 32.263 122.751 32.416 122.788 32.654C122.824 32.8835 122.692 33.1045 122.485 33.147C122.065 33.2405 121.697 33.249 121.594 33.249ZM120.112 35C120.083 35 120.046 34.9915 120.016 34.983C118.845 34.609 118.078 34.1075 117.275 33.198C116.243 32.0165 115.675 30.444 115.675 28.761C115.675 27.384 116.692 26.262 117.945 26.262C119.198 26.262 120.215 27.384 120.215 28.761C120.215 29.6705 120.901 30.41 121.748 30.41C122.596 30.41 123.281 29.6705 123.281 28.761C123.281 25.5565 120.886 22.9555 117.938 22.9555C115.845 22.9555 113.929 24.2985 113.066 26.381C112.779 27.0695 112.632 27.877 112.632 28.761C112.632 29.424 112.683 30.4695 113.125 31.8295C113.199 32.0505 113.103 32.297 112.912 32.3735C112.72 32.4585 112.506 32.3395 112.44 32.127C112.079 31.0135 111.902 29.9085 111.902 28.761C111.902 27.741 112.071 26.8145 112.403 26.007C113.383 23.6355 115.557 22.097 117.938 22.097C121.291 22.097 124.018 25.0805 124.018 28.7525C124.018 30.1295 123.001 31.2515 121.748 31.2515C120.495 31.2515 119.478 30.1295 119.478 28.7525C119.478 27.843 118.793 27.1035 117.945 27.1035C117.098 27.1035 116.412 27.843 116.412 28.7525C116.412 30.206 116.899 31.566 117.791 32.586C118.491 33.385 119.161 33.827 120.201 34.1585C120.4 34.218 120.51 34.456 120.459 34.677C120.422 34.8725 120.267 35 120.112 35Z" fill="#D2F6F2"/>
<path d="M27.968 76.98C28.0247 77.116 28.053 77.2293 28.053 77.32C28.053 77.5353 27.9623 77.7167 27.781 77.864C27.611 78.0113 27.4183 78.085 27.203 78.085C27.0557 78.085 26.914 78.0453 26.778 77.966C26.6533 77.8753 26.557 77.7507 26.489 77.592L25.367 75.042H19.145L18.023 77.592C17.955 77.7507 17.853 77.8753 17.717 77.966C17.581 78.0453 17.4393 78.085 17.292 78.085C17.0653 78.085 16.8613 78.0113 16.68 77.864C16.51 77.7167 16.425 77.5353 16.425 77.32C16.425 77.2293 16.4533 77.116 16.51 76.98L21.304 66.491C21.3833 66.3097 21.508 66.168 21.678 66.066C21.8593 65.964 22.0463 65.913 22.239 65.913C22.4317 65.913 22.613 65.964 22.783 66.066C22.9643 66.168 23.0947 66.3097 23.174 66.491L27.968 76.98ZM19.774 73.648H24.755L22.256 68.021L19.774 73.648ZM39.8884 65.93C40.1377 65.93 40.336 66.015 40.4834 66.185C40.642 66.3437 40.7214 66.5533 40.7214 66.814V77.201C40.7214 77.4617 40.642 77.677 40.4834 77.847C40.3247 78.0057 40.1207 78.085 39.8714 78.085C39.5767 78.085 39.35 77.9717 39.1914 77.745L32.5274 68.956V77.201C32.5274 77.4617 32.448 77.677 32.2894 77.847C32.142 78.0057 31.9437 78.085 31.6944 78.085C31.445 78.085 31.2467 78.0057 31.0994 77.847C30.952 77.6883 30.8784 77.473 30.8784 77.201V66.814C30.8784 66.5533 30.9577 66.3437 31.1164 66.185C31.275 66.015 31.479 65.93 31.7284 65.93C32.023 65.93 32.2497 66.0433 32.4084 66.27L39.0724 75.076V66.814C39.0724 66.5533 39.146 66.3437 39.2934 66.185C39.4407 66.015 39.639 65.93 39.8884 65.93ZM49.6632 78.136C48.5298 78.136 47.5438 77.8867 46.7052 77.388C45.8778 76.8893 45.2375 76.181 44.7842 75.263C44.3308 74.345 44.1042 73.2627 44.1042 72.016C44.1042 70.758 44.3252 69.67 44.7672 68.752C45.2205 67.8227 45.8665 67.1143 46.7052 66.627C47.5438 66.1283 48.5298 65.879 49.6632 65.879C50.8078 65.879 51.7995 66.1283 52.6382 66.627C53.4768 67.1143 54.1172 67.8227 54.5592 68.752C55.0125 69.67 55.2392 70.7523 55.2392 71.999C55.2392 73.2457 55.0125 74.3337 54.5592 75.263C54.1172 76.181 53.4768 76.8893 52.6382 77.388C51.7995 77.8867 50.8078 78.136 49.6632 78.136ZM49.6632 76.708C50.8645 76.708 51.7995 76.3 52.4682 75.484C53.1368 74.668 53.4712 73.5063 53.4712 71.999C53.4712 70.4917 53.1368 69.3357 52.4682 68.531C51.8108 67.715 50.8758 67.307 49.6632 67.307C48.4732 67.307 47.5438 67.715 46.8752 68.531C46.2178 69.3357 45.8892 70.4917 45.8892 71.999C45.8892 73.5063 46.2178 74.668 46.8752 75.484C47.5438 76.3 48.4732 76.708 49.6632 76.708ZM61.6369 78.085C61.3763 78.085 61.1609 78.0057 60.9909 77.847C60.8323 77.677 60.7529 77.4617 60.7529 77.201V67.477H57.3529C56.8089 67.477 56.5369 67.2333 56.5369 66.746C56.5369 66.508 56.6049 66.3267 56.7409 66.202C56.8883 66.0773 57.0923 66.015 57.3529 66.015H65.9209C66.1816 66.015 66.3799 66.0773 66.5159 66.202C66.6633 66.3267 66.7369 66.508 66.7369 66.746C66.7369 67.2333 66.4649 67.477 65.9209 67.477H62.5209V77.201C62.5209 77.4617 62.4416 77.677 62.2829 77.847C62.1243 78.0057 61.9089 78.085 61.6369 78.085ZM78.4889 65.93C78.7496 65.93 78.9592 66.015 79.1179 66.185C79.2766 66.3437 79.3559 66.5533 79.3559 66.814V77.201C79.3559 77.4617 79.2766 77.677 79.1179 77.847C78.9592 78.0057 78.7496 78.085 78.4889 78.085C78.2282 78.085 78.0186 78.0057 77.8599 77.847C77.7012 77.6883 77.6219 77.473 77.6219 77.201V72.628H70.9239V77.201C70.9239 77.4617 70.8446 77.677 70.6859 77.847C70.5272 78.0057 70.3176 78.085 70.0569 78.085C69.7962 78.085 69.5866 78.0057 69.4279 77.847C69.2692 77.6883 69.1899 77.473 69.1899 77.201V66.814C69.1899 66.5533 69.2692 66.3437 69.4279 66.185C69.5866 66.015 69.7962 65.93 70.0569 65.93C70.3176 65.93 70.5272 66.015 70.6859 66.185C70.8446 66.3437 70.9239 66.5533 70.9239 66.814V71.2H77.6219V66.814C77.6219 66.5533 77.7012 66.3437 77.8599 66.185C78.0186 66.015 78.2282 65.93 78.4889 65.93ZM84.0061 78C83.7341 78 83.5188 77.9263 83.3601 77.779C83.2128 77.6203 83.1391 77.4107 83.1391 77.15V66.865C83.1391 66.6043 83.2128 66.4003 83.3601 66.253C83.5188 66.0943 83.7341 66.015 84.0061 66.015H90.2621C90.5228 66.015 90.7211 66.0773 90.8571 66.202C91.0045 66.3267 91.0781 66.5023 91.0781 66.729C91.0781 66.9557 91.0045 67.1313 90.8571 67.256C90.7211 67.3693 90.5228 67.426 90.2621 67.426H84.8561V71.2H89.9221C90.1828 71.2 90.3811 71.2623 90.5171 71.387C90.6645 71.5117 90.7381 71.6873 90.7381 71.914C90.7381 72.1407 90.6645 72.3163 90.5171 72.441C90.3811 72.5657 90.1828 72.628 89.9221 72.628H84.8561V76.589H90.2621C90.8061 76.589 91.0781 76.8213 91.0781 77.286C91.0781 77.5127 91.0045 77.6883 90.8571 77.813C90.7211 77.9377 90.5228 78 90.2621 78H84.0061ZM103.433 76.912C103.535 77.0593 103.586 77.218 103.586 77.388C103.586 77.592 103.501 77.7677 103.331 77.915C103.173 78.051 102.986 78.119 102.77 78.119C102.453 78.119 102.198 77.9773 102.005 77.694L99.7275 74.158C99.4668 73.75 99.1891 73.4667 98.8945 73.308C98.5998 73.138 98.2145 73.053 97.7385 73.053H95.8175V77.201C95.8175 77.473 95.7381 77.6883 95.5795 77.847C95.4321 78.0057 95.2225 78.085 94.9505 78.085C94.6898 78.085 94.4801 78.0057 94.3215 77.847C94.1628 77.6883 94.0835 77.473 94.0835 77.201V66.865C94.0835 66.6043 94.1571 66.4003 94.3045 66.253C94.4631 66.0943 94.6785 66.015 94.9505 66.015H99.1835C100.509 66.015 101.518 66.3097 102.209 66.899C102.912 67.4883 103.263 68.3497 103.263 69.483C103.263 70.4237 102.997 71.1887 102.464 71.778C101.932 72.356 101.172 72.7243 100.186 72.883C100.481 72.9623 100.747 73.104 100.985 73.308C101.223 73.512 101.456 73.7953 101.682 74.158L103.433 76.912ZM98.9795 71.642C99.8635 71.642 100.515 71.472 100.934 71.132C101.365 70.7807 101.58 70.2423 101.58 69.517C101.58 68.7917 101.371 68.2647 100.951 67.936C100.532 67.596 99.8748 67.426 98.9795 67.426H95.8005V71.642H98.9795ZM26.744 97.912C26.846 98.0593 26.897 98.218 26.897 98.388C26.897 98.592 26.812 98.7677 26.642 98.915C26.4833 99.051 26.2963 99.119 26.081 99.119C25.7637 99.119 25.5087 98.9773 25.316 98.694L23.038 95.158C22.7773 94.75 22.4997 94.4667 22.205 94.308C21.9103 94.138 21.525 94.053 21.049 94.053H19.128V98.201C19.128 98.473 19.0487 98.6883 18.89 98.847C18.7427 99.0057 18.533 99.085 18.261 99.085C18.0003 99.085 17.7907 99.0057 17.632 98.847C17.4733 98.6883 17.394 98.473 17.394 98.201V87.865C17.394 87.6043 17.4677 87.4003 17.615 87.253C17.7737 87.0943 17.989 87.015 18.261 87.015H22.494C23.82 87.015 24.8287 87.3097 25.52 87.899C26.2227 88.4883 26.574 89.3497 26.574 90.483C26.574 91.4237 26.3077 92.1887 25.775 92.778C25.2423 93.356 24.483 93.7243 23.497 93.883C23.7917 93.9623 24.058 94.104 24.296 94.308C24.534 94.512 24.7663 94.7953 24.993 95.158L26.744 97.912ZM22.29 92.642C23.174 92.642 23.8257 92.472 24.245 92.132C24.6757 91.7807 24.891 91.2423 24.891 90.517C24.891 89.7917 24.6813 89.2647 24.262 88.936C23.8427 88.596 23.1853 88.426 22.29 88.426H19.111V92.642H22.29ZM30.9983 99C30.7263 99 30.511 98.9263 30.3523 98.779C30.205 98.6203 30.1313 98.4107 30.1313 98.15V87.865C30.1313 87.6043 30.205 87.4003 30.3523 87.253C30.511 87.0943 30.7263 87.015 30.9983 87.015H37.2543C37.515 87.015 37.7133 87.0773 37.8493 87.202C37.9966 87.3267 38.0703 87.5023 38.0703 87.729C38.0703 87.9557 37.9966 88.1313 37.8493 88.256C37.7133 88.3693 37.515 88.426 37.2543 88.426H31.8483V92.2H36.9143C37.175 92.2 37.3733 92.2623 37.5093 92.387C37.6566 92.5117 37.7303 92.6873 37.7303 92.914C37.7303 93.1407 37.6566 93.3163 37.5093 93.441C37.3733 93.5657 37.175 93.628 36.9143 93.628H31.8483V97.589H37.2543C37.7983 97.589 38.0703 97.8213 38.0703 98.286C38.0703 98.5127 37.9966 98.6883 37.8493 98.813C37.7133 98.9377 37.515 99 37.2543 99H30.9983ZM46.2448 99.136C45.1002 99.136 44.1028 98.8923 43.2528 98.405C42.4028 97.9063 41.7512 97.198 41.2978 96.28C40.8445 95.3507 40.6178 94.257 40.6178 92.999C40.6178 91.7523 40.8445 90.67 41.2978 89.752C41.7512 88.8227 42.4028 88.1143 43.2528 87.627C44.1028 87.1283 45.1002 86.879 46.2448 86.879C46.9928 86.879 47.7012 86.998 48.3698 87.236C49.0385 87.4627 49.6222 87.797 50.1208 88.239C50.3362 88.409 50.4438 88.6357 50.4438 88.919C50.4438 89.123 50.3872 89.2987 50.2738 89.446C50.1605 89.582 50.0245 89.65 49.8658 89.65C49.6732 89.65 49.4862 89.5763 49.3048 89.429C48.7608 89.021 48.2622 88.7377 47.8088 88.579C47.3668 88.409 46.8625 88.324 46.2958 88.324C45.0492 88.324 44.0915 88.7263 43.4228 89.531C42.7542 90.3357 42.4198 91.4917 42.4198 92.999C42.4198 94.5177 42.7542 95.6793 43.4228 96.484C44.0915 97.2887 45.0492 97.691 46.2958 97.691C46.8398 97.691 47.3328 97.606 47.7748 97.436C48.2282 97.266 48.7382 96.9827 49.3048 96.586C49.5315 96.4387 49.7185 96.365 49.8658 96.365C50.0245 96.365 50.1605 96.4387 50.2738 96.586C50.3872 96.722 50.4438 96.892 50.4438 97.096C50.4438 97.3793 50.3362 97.606 50.1208 97.776C49.6222 98.218 49.0385 98.558 48.3698 98.796C47.7012 99.0227 46.9928 99.136 46.2448 99.136ZM54.3977 99.085C54.1371 99.085 53.9274 99.0057 53.7687 98.847C53.6101 98.6883 53.5307 98.473 53.5307 98.201V87.814C53.5307 87.5533 53.6101 87.3437 53.7687 87.185C53.9274 87.015 54.1371 86.93 54.3977 86.93C54.6697 86.93 54.8851 87.0093 55.0437 87.168C55.2024 87.3267 55.2817 87.542 55.2817 87.814V98.201C55.2817 98.473 55.2024 98.6883 55.0437 98.847C54.8964 99.0057 54.6811 99.085 54.3977 99.085ZM59.9299 99.085C59.6693 99.085 59.4596 99.0057 59.3009 98.847C59.1423 98.6883 59.0629 98.473 59.0629 98.201V87.865C59.0629 87.6043 59.1366 87.4003 59.2839 87.253C59.4426 87.0943 59.6579 87.015 59.9299 87.015H64.0269C65.2963 87.015 66.2823 87.3267 66.9849 87.95C67.6876 88.5733 68.0389 89.4573 68.0389 90.602C68.0389 91.7353 67.6876 92.6193 66.9849 93.254C66.2823 93.8887 65.2963 94.206 64.0269 94.206H60.8139V98.201C60.8139 98.473 60.7346 98.6883 60.5759 98.847C60.4286 99.0057 60.2133 99.085 59.9299 99.085ZM63.8399 92.795C65.5173 92.795 66.3559 92.064 66.3559 90.602C66.3559 89.1513 65.5173 88.426 63.8399 88.426H60.8139V92.795H63.8399ZM72.0198 99.085C71.7591 99.085 71.5495 99.0057 71.3908 98.847C71.2321 98.6883 71.1528 98.473 71.1528 98.201V87.814C71.1528 87.5533 71.2321 87.3437 71.3908 87.185C71.5495 87.015 71.7591 86.93 72.0198 86.93C72.2918 86.93 72.5071 87.0093 72.6658 87.168C72.8245 87.3267 72.9038 87.542 72.9038 87.814V98.201C72.9038 98.473 72.8245 98.6883 72.6658 98.847C72.5185 99.0057 72.3031 99.085 72.0198 99.085ZM77.552 99C77.28 99 77.0647 98.9263 76.906 98.779C76.7587 98.6203 76.685 98.4107 76.685 98.15V87.865C76.685 87.6043 76.7587 87.4003 76.906 87.253C77.0647 87.0943 77.28 87.015 77.552 87.015H83.808C84.0687 87.015 84.267 87.0773 84.403 87.202C84.5503 87.3267 84.624 87.5023 84.624 87.729C84.624 87.9557 84.5503 88.1313 84.403 88.256C84.267 88.3693 84.0687 88.426 83.808 88.426H78.402V92.2H83.468C83.7287 92.2 83.927 92.2623 84.063 92.387C84.2103 92.5117 84.284 92.6873 84.284 92.914C84.284 93.1407 84.2103 93.3163 84.063 93.441C83.927 93.5657 83.7287 93.628 83.468 93.628H78.402V97.589H83.808C84.352 97.589 84.624 97.8213 84.624 98.286C84.624 98.5127 84.5503 98.6883 84.403 98.813C84.267 98.9377 84.0687 99 83.808 99H77.552ZM96.6394 86.93C96.8887 86.93 97.087 87.015 97.2344 87.185C97.393 87.3437 97.4724 87.5533 97.4724 87.814V98.201C97.4724 98.4617 97.393 98.677 97.2344 98.847C97.0757 99.0057 96.8717 99.085 96.6224 99.085C96.3277 99.085 96.101 98.9717 95.9424 98.745L89.2784 89.956V98.201C89.2784 98.4617 89.199 98.677 89.0404 98.847C88.893 99.0057 88.6947 99.085 88.4454 99.085C88.196 99.085 87.9977 99.0057 87.8504 98.847C87.703 98.6883 87.6294 98.473 87.6294 98.201V87.814C87.6294 87.5533 87.7087 87.3437 87.8674 87.185C88.026 87.015 88.23 86.93 88.4794 86.93C88.774 86.93 89.0007 87.0433 89.1594 87.27L95.8234 96.076V87.814C95.8234 87.5533 95.897 87.3437 96.0444 87.185C96.1917 87.015 96.39 86.93 96.6394 86.93ZM105.003 99.085C104.742 99.085 104.527 99.0057 104.357 98.847C104.198 98.677 104.119 98.4617 104.119 98.201V88.477H100.719C100.175 88.477 99.9031 88.2333 99.9031 87.746C99.9031 87.508 99.9711 87.3267 100.107 87.202C100.254 87.0773 100.458 87.015 100.719 87.015H109.287C109.548 87.015 109.746 87.0773 109.882 87.202C110.029 87.3267 110.103 87.508 110.103 87.746C110.103 88.2333 109.831 88.477 109.287 88.477H105.887V98.201C105.887 98.4617 105.808 98.677 105.649 98.847C105.49 99.0057 105.275 99.085 105.003 99.085ZM113.184 86.93C113.524 86.93 113.791 87.0547 113.983 87.304C114.187 87.5533 114.289 87.9217 114.289 88.409C114.289 89.3723 113.966 90.2053 113.32 90.908C113.184 91.044 113.037 91.112 112.878 91.112C112.731 91.112 112.606 91.0667 112.504 90.976C112.402 90.874 112.351 90.755 112.351 90.619C112.351 90.4943 112.402 90.3753 112.504 90.262C112.822 89.9333 113.026 89.5423 113.116 89.089C112.833 89.0663 112.595 88.9587 112.402 88.766C112.221 88.5733 112.13 88.3297 112.13 88.035C112.13 87.7177 112.232 87.457 112.436 87.253C112.64 87.0377 112.89 86.93 113.184 86.93ZM121.601 99.136C120.74 99.136 119.918 99.017 119.136 98.779C118.365 98.541 117.748 98.2123 117.283 97.793C117.068 97.6117 116.96 97.3793 116.96 97.096C116.96 96.892 117.017 96.722 117.13 96.586C117.243 96.4387 117.379 96.365 117.538 96.365C117.697 96.365 117.889 96.4387 118.116 96.586C119.125 97.334 120.275 97.708 121.567 97.708C122.474 97.708 123.171 97.538 123.658 97.198C124.145 96.858 124.389 96.3707 124.389 95.736C124.389 95.2373 124.162 94.8633 123.709 94.614C123.256 94.3647 122.53 94.1267 121.533 93.9C120.581 93.696 119.799 93.4637 119.187 93.203C118.575 92.9423 118.093 92.591 117.742 92.149C117.402 91.6957 117.232 91.1233 117.232 90.432C117.232 89.7407 117.419 89.1287 117.793 88.596C118.178 88.052 118.711 87.6327 119.391 87.338C120.071 87.032 120.847 86.879 121.72 86.879C122.525 86.879 123.267 86.9923 123.947 87.219C124.627 87.4457 125.205 87.78 125.681 88.222C125.908 88.4147 126.021 88.647 126.021 88.919C126.021 89.1117 125.959 89.2817 125.834 89.429C125.721 89.5763 125.585 89.65 125.426 89.65C125.279 89.65 125.092 89.5763 124.865 89.429C124.344 89.0323 123.851 88.749 123.386 88.579C122.933 88.3977 122.383 88.307 121.737 88.307C120.864 88.307 120.184 88.4883 119.697 88.851C119.21 89.2023 118.966 89.6953 118.966 90.33C118.966 90.874 119.181 91.2877 119.612 91.571C120.043 91.843 120.734 92.0923 121.686 92.319C122.683 92.5457 123.488 92.7837 124.1 93.033C124.723 93.271 125.216 93.6053 125.579 94.036C125.953 94.4553 126.14 94.9993 126.14 95.668C126.14 96.348 125.947 96.9543 125.562 97.487C125.188 98.0083 124.655 98.4163 123.964 98.711C123.284 98.9943 122.496 99.136 121.601 99.136ZM32.592 108.457C32.66 108.276 32.762 108.14 32.898 108.049C33.034 107.958 33.187 107.913 33.357 107.913C33.5723 107.913 33.7593 107.987 33.918 108.134C34.088 108.27 34.173 108.451 34.173 108.678C34.173 108.803 34.1503 108.916 34.105 109.018L30.348 119.524C30.2687 119.717 30.144 119.864 29.974 119.966C29.804 120.068 29.617 120.119 29.413 120.119C29.2203 120.119 29.039 120.068 28.869 119.966C28.699 119.864 28.58 119.717 28.512 119.524L25.418 110.752L22.256 119.524C22.188 119.717 22.069 119.864 21.899 119.966C21.729 120.068 21.5477 120.119 21.355 120.119C21.151 120.119 20.964 120.068 20.794 119.966C20.6353 119.864 20.5163 119.717 20.437 119.524L16.68 109.018C16.6347 108.916 16.612 108.803 16.612 108.678C16.612 108.451 16.697 108.27 16.867 108.134C17.037 107.987 17.241 107.913 17.479 107.913C17.649 107.913 17.802 107.958 17.938 108.049C18.0853 108.14 18.193 108.276 18.261 108.457L21.406 117.501L24.602 108.542C24.67 108.349 24.7777 108.202 24.925 108.1C25.0837 107.998 25.2537 107.947 25.435 107.947C25.6163 107.947 25.7807 108.004 25.928 108.117C26.0753 108.219 26.1887 108.366 26.268 108.559L29.396 117.586L32.592 108.457ZM46.6487 118.98C46.7053 119.116 46.7337 119.229 46.7337 119.32C46.7337 119.535 46.643 119.717 46.4617 119.864C46.2917 120.011 46.099 120.085 45.8837 120.085C45.7363 120.085 45.5947 120.045 45.4587 119.966C45.334 119.875 45.2377 119.751 45.1697 119.592L44.0477 117.042H37.8257L36.7037 119.592C36.6357 119.751 36.5337 119.875 36.3977 119.966C36.2617 120.045 36.12 120.085 35.9727 120.085C35.746 120.085 35.542 120.011 35.3607 119.864C35.1907 119.717 35.1057 119.535 35.1057 119.32C35.1057 119.229 35.134 119.116 35.1907 118.98L39.9847 108.491C40.064 108.31 40.1887 108.168 40.3587 108.066C40.54 107.964 40.727 107.913 40.9197 107.913C41.1123 107.913 41.2937 107.964 41.4637 108.066C41.645 108.168 41.7753 108.31 41.8547 108.491L46.6487 118.98ZM38.4547 115.648H43.4357L40.9367 110.021L38.4547 115.648ZM50.409 120C50.1484 120 49.9387 119.926 49.78 119.779C49.6327 119.632 49.559 119.433 49.559 119.184V108.814C49.559 108.553 49.6384 108.344 49.797 108.185C49.9557 108.015 50.1654 107.93 50.426 107.93C50.698 107.93 50.9134 108.009 51.072 108.168C51.2307 108.327 51.31 108.542 51.31 108.814V118.538H56.478C56.7387 118.538 56.937 118.6 57.073 118.725C57.2204 118.85 57.294 119.031 57.294 119.269C57.294 119.507 57.2204 119.688 57.073 119.813C56.937 119.938 56.7387 120 56.478 120H50.409ZM60.7059 120C60.4452 120 60.2356 119.926 60.0769 119.779C59.9296 119.632 59.8559 119.433 59.8559 119.184V108.814C59.8559 108.553 59.9352 108.344 60.0939 108.185C60.2526 108.015 60.4622 107.93 60.7229 107.93C60.9949 107.93 61.2102 108.009 61.3689 108.168C61.5276 108.327 61.6069 108.542 61.6069 108.814V118.538H66.7749C67.0356 118.538 67.2339 118.6 67.3699 118.725C67.5172 118.85 67.5909 119.031 67.5909 119.269C67.5909 119.507 67.5172 119.688 67.3699 119.813C67.2339 119.938 67.0356 120 66.7749 120H60.7059ZM71.0198 120C70.7478 120 70.5325 119.926 70.3738 119.779C70.2265 119.62 70.1528 119.411 70.1528 119.15V108.865C70.1528 108.604 70.2265 108.4 70.3738 108.253C70.5325 108.094 70.7478 108.015 71.0198 108.015H77.2758C77.5365 108.015 77.7348 108.077 77.8708 108.202C78.0181 108.327 78.0918 108.502 78.0918 108.729C78.0918 108.956 78.0181 109.131 77.8708 109.256C77.7348 109.369 77.5365 109.426 77.2758 109.426H71.8698V113.2H76.9358C77.1965 113.2 77.3948 113.262 77.5308 113.387C77.6781 113.512 77.7518 113.687 77.7518 113.914C77.7518 114.141 77.6781 114.316 77.5308 114.441C77.3948 114.566 77.1965 114.628 76.9358 114.628H71.8698V118.589H77.2758C77.8198 118.589 78.0918 118.821 78.0918 119.286C78.0918 119.513 78.0181 119.688 77.8708 119.813C77.7348 119.938 77.5365 120 77.2758 120H71.0198ZM84.7375 120.085C84.4768 120.085 84.2615 120.006 84.0915 119.847C83.9328 119.677 83.8535 119.462 83.8535 119.201V109.477H80.4535C79.9095 109.477 79.6375 109.233 79.6375 108.746C79.6375 108.508 79.7055 108.327 79.8415 108.202C79.9888 108.077 80.1928 108.015 80.4535 108.015H89.0215C89.2822 108.015 89.4805 108.077 89.6165 108.202C89.7638 108.327 89.8375 108.508 89.8375 108.746C89.8375 109.233 89.5655 109.477 89.0215 109.477H85.6215V119.201C85.6215 119.462 85.5422 119.677 85.3835 119.847C85.2248 120.006 85.0095 120.085 84.7375 120.085Z" fill="#26A69A"/>
</svg>
