<svg width="29" height="27" viewBox="0 0 29 27" fill="none" xmlns="http://www.w3.org/2000/svg">
<path d="M25.375 20.25V21.375C25.375 22.6125 24.2875 23.625 22.9583 23.625H6.04167C4.70042 23.625 3.625 22.6125 3.625 21.375V5.625C3.625 4.3875 4.70042 3.375 6.04167 3.375H22.9583C24.2875 3.375 25.375 4.3875 25.375 5.625V6.75H14.5C13.1588 6.75 12.0833 7.7625 12.0833 9V18C12.0833 19.2375 13.1588 20.25 14.5 20.25H25.375ZM14.5 18H26.5833V9H14.5V18ZM19.3333 15.1875C18.3304 15.1875 17.5208 14.4338 17.5208 13.5C17.5208 12.5662 18.3304 11.8125 19.3333 11.8125C20.3363 11.8125 21.1458 12.5662 21.1458 13.5C21.1458 14.4338 20.3363 15.1875 19.3333 15.1875Z" fill="#26A69A"/>
</svg>
