<svg width="24" height="25" viewBox="0 0 24 25" fill="none" xmlns="http://www.w3.org/2000/svg">
<path d="M18.845 0H8.07642L0.0269214 7.5L0 22.5C0 23.875 1.21146 25 2.69214 25H18.845C20.3256 25 21.5371 23.875 21.5371 22.5V2.5C21.5371 1.125 20.3256 0 18.845 0ZM10.7686 7.5H8.07642V2.5H10.7686V7.5ZM14.8068 7.5H12.1146V2.5H14.8068V7.5ZM18.845 7.5H16.1528V2.5H18.845V7.5Z" fill="#323232"/>
<rect x="8.06055" y="2.43945" width="12.9171" height="5.97484" fill="white"/>
<path d="M20.7871 0H9.78711L1.56461 7.18317L1.53711 21.5495C1.53711 22.8664 2.77461 23.9439 4.28711 23.9439H20.7871C22.2996 23.9439 23.5371 22.8664 23.5371 21.5495V2.39439C23.5371 1.07747 22.2996 0 20.7871 0ZM12.5371 7.18317H9.78711V2.39439H12.5371V7.18317ZM16.6621 7.18317H13.9121V2.39439H16.6621V7.18317ZM20.7871 7.18317H18.0371V2.39439H20.7871V7.18317Z" fill="#00B5AB"/>
</svg>
