<svg width="10" height="10" viewBox="0 0 10 10" fill="none" xmlns="http://www.w3.org/2000/svg">
    <path d="M4.999.834A4.168 4.168 0 0 0 .832 5.001c0 2.3 1.867 4.166 4.167 4.166s4.166-1.866 4.166-4.166C9.165 2.7 7.3.834 5 .834zm.416 7.083h-.833v-.833h.833v.833zm.863-3.229-.375.383c-.3.305-.488.555-.488 1.18h-.833v-.209c0-.458.188-.875.488-1.179l.516-.525a.815.815 0 0 0 .246-.587.836.836 0 0 0-.833-.834.836.836 0 0 0-.834.834h-.833a1.666 1.666 0 1 1 3.333 0c0 .366-.15.7-.387.937z" fill="#26A69A"/>
</svg>
