<svg width="19" height="19" viewBox="0 0 19 19" fill="none" xmlns="http://www.w3.org/2000/svg">
<circle cx="9.5" cy="9.5" r="9.5" fill="#C8D5EC"/>
<path d="M11.764 5.31733C11.7289 5.31733 11.6938 5.30667 11.6631 5.28533C10.8208 4.75733 10.0926 4.53333 9.21957 4.53333C8.35098 4.53333 7.52624 4.784 6.77609 5.28533C6.67081 5.35467 6.5392 5.30667 6.47778 5.17867C6.42076 5.05067 6.46024 4.88533 6.56552 4.816C7.38148 4.27733 8.2764 4 9.21957 4C10.154 4 10.9699 4.25067 11.8649 4.81067C11.9745 4.88 12.014 5.04 11.957 5.168C11.9175 5.264 11.8429 5.31733 11.764 5.31733ZM5.48635 8.11733C5.44249 8.11733 5.39862 8.10133 5.35913 8.06933C5.25824 7.984 5.2363 7.81867 5.30649 7.696C5.74079 6.94933 6.29354 6.36267 6.95157 5.952C8.32904 5.088 10.0926 5.08267 11.4744 5.94667C12.1325 6.35733 12.6852 6.93867 13.1195 7.68C13.1897 7.79733 13.1677 7.968 13.0669 8.05333C12.966 8.13867 12.83 8.112 12.7598 7.98933C12.365 7.31733 11.8649 6.78933 11.2726 6.42133C10.0136 5.63733 8.40362 5.63733 7.14897 6.42667C6.55236 6.8 6.05226 7.33333 5.65744 8.00533C5.62235 8.08 5.55654 8.11733 5.48635 8.11733ZM8.22814 14.5547C8.17111 14.5547 8.11408 14.528 8.0746 14.4747C7.69295 14.0107 7.48676 13.712 7.19284 13.0667C6.89015 12.4107 6.73222 11.6107 6.73222 10.752C6.73222 9.168 7.84649 7.87733 9.21519 7.87733C10.5839 7.87733 11.6982 9.168 11.6982 10.752C11.6982 10.9013 11.6016 11.0187 11.4788 11.0187C11.356 11.0187 11.2595 10.9013 11.2595 10.752C11.2595 9.46133 10.3426 8.41067 9.21519 8.41067C8.08776 8.41067 7.17091 9.46133 7.17091 10.752C7.17091 11.52 7.31129 12.2293 7.57889 12.8053C7.85965 13.4187 8.05267 13.68 8.39046 14.096C8.47381 14.2027 8.47381 14.368 8.39046 14.4747C8.3422 14.528 8.28517 14.5547 8.22814 14.5547ZM11.3735 13.568C10.8515 13.568 10.3909 13.408 10.0136 13.0933C9.35995 12.5547 8.96952 11.68 8.96952 10.752C8.96952 10.6027 9.06603 10.4853 9.18887 10.4853C9.3117 10.4853 9.40821 10.6027 9.40821 10.752C9.40821 11.504 9.72406 12.2133 10.2593 12.6507C10.5707 12.9067 10.9348 13.0293 11.3735 13.0293C11.4788 13.0293 11.6543 13.0133 11.8298 12.976C11.9482 12.9493 12.0623 13.0453 12.0842 13.1947C12.1061 13.3387 12.0272 13.4773 11.9043 13.504C11.6543 13.5627 11.4349 13.568 11.3735 13.568ZM10.4918 14.6667C10.4742 14.6667 10.4523 14.6613 10.4347 14.656C9.73722 14.4213 9.28099 14.1067 8.80282 13.536C8.18866 12.7947 7.85087 11.808 7.85087 10.752C7.85087 9.888 8.45626 9.184 9.20203 9.184C9.94779 9.184 10.5532 9.888 10.5532 10.752C10.5532 11.3227 10.9612 11.7867 11.4656 11.7867C11.9701 11.7867 12.3781 11.3227 12.3781 10.752C12.3781 8.74133 10.9524 7.10933 9.19764 7.10933C7.95177 7.10933 6.81119 7.952 6.29792 9.25867C6.12684 9.69067 6.0391 10.1973 6.0391 10.752C6.0391 11.168 6.06981 11.824 6.33302 12.6773C6.37689 12.816 6.31986 12.9707 6.2058 13.0187C6.09174 13.072 5.96452 12.9973 5.92504 12.864C5.71008 12.1653 5.6048 11.472 5.6048 10.752C5.6048 10.112 5.7057 9.53067 5.90311 9.024C6.48656 7.536 7.78068 6.57067 9.19764 6.57067C11.1937 6.57067 12.8168 8.44267 12.8168 10.7467C12.8168 11.6107 12.2114 12.3147 11.4656 12.3147C10.7199 12.3147 10.1145 11.6107 10.1145 10.7467C10.1145 10.176 9.70652 9.712 9.20203 9.712C8.69754 9.712 8.28956 10.176 8.28956 10.7467C8.28956 11.6587 8.57909 12.512 9.1099 13.152C9.52665 13.6533 9.92586 13.9307 10.5444 14.1387C10.6629 14.176 10.7287 14.3253 10.6979 14.464C10.676 14.5867 10.5839 14.6667 10.4918 14.6667Z" fill="#9C2CF3"/>
</svg>
