<svg width="22" height="22" viewBox="0 0 22 22" fill="none" xmlns="http://www.w3.org/2000/svg">
    <path d="M11.915 1.833v7.333h7.334a7.331 7.331 0 0 0-7.334-7.333zm5.794 12.732a7.285 7.285 0 0 0 1.54-4.482H5.902l-.87-1.833h-3.2v1.833h2.035s1.733 3.73 1.943 4.052a3.198 3.198 0 0 0-1.686 2.823c0 1.77 1.439 3.208 3.208 3.208a3.202 3.202 0 0 0 3.172-2.75h1.906a3.202 3.202 0 0 0 3.172 2.75c1.77 0 3.208-1.439 3.208-3.208 0-.953-.421-1.806-1.081-2.392zM7.332 18.334c-.76 0-1.375-.614-1.375-1.375 0-.76.614-1.375 1.375-1.375.76 0 1.375.614 1.375 1.375 0 .76-.614 1.375-1.375 1.375zm8.25 0c-.76 0-1.375-.614-1.375-1.375 0-.76.614-1.375 1.375-1.375.76 0 1.375.614 1.375 1.375 0 .76-.614 1.375-1.375 1.375z" fill="#979797"/>
</svg>
