<svg width="25" height="25" viewBox="0 0 25 25" fill="none" xmlns="http://www.w3.org/2000/svg">
<path d="M4.16927 6.24967H2.08594V20.833C2.08594 21.9788 3.02344 22.9163 4.16927 22.9163H18.7526V20.833H4.16927V6.24967ZM20.8359 2.08301H8.33594C7.1901 2.08301 6.2526 3.02051 6.2526 4.16634V16.6663C6.2526 17.8122 7.1901 18.7497 8.33594 18.7497H20.8359C21.9818 18.7497 22.9193 17.8122 22.9193 16.6663V4.16634C22.9193 3.02051 21.9818 2.08301 20.8359 2.08301ZM19.7943 11.458H15.6276V15.6247H13.5443V11.458H9.3776V9.37467H13.5443V5.20801H15.6276V9.37467H19.7943V11.458Z" fill="#CDCDCD"/>
</svg>
