<svg width="149" height="135" viewBox="0 0 149 135" fill="none" xmlns="http://www.w3.org/2000/svg">
<path d="M0 2.21001C0 0.989457 0.989451 0 2.21 0H146.79C148.011 0 149 0.989451 149 2.21V132.79C149 134.011 148.011 135 146.79 135H2.21001C0.989457 135 0 134.011 0 132.79V2.21001Z" fill="#26A69A"/>
<path d="M137.776 27C137.776 35.2843 130.924 42 122.472 42C114.02 42 107.168 35.2843 107.168 27C107.168 18.7157 114.02 12 122.472 12C130.924 12 137.776 18.7157 137.776 27Z" fill="#B1E7E1"/>
<path d="M18.244 89.119C17.7 89.119 17.428 88.8413 17.428 88.286V77.729C17.428 77.1737 17.7 76.896 18.244 76.896C18.482 76.896 18.6633 76.9413 18.788 77.032C18.924 77.1227 19.0487 77.27 19.162 77.474L23.344 85.294L27.526 77.474C27.6393 77.27 27.7583 77.1227 27.883 77.032C28.019 76.9413 28.2003 76.896 28.427 76.896C28.9483 76.896 29.209 77.1737 29.209 77.729V88.286C29.209 88.8413 28.9483 89.119 28.427 89.119C27.8943 89.119 27.628 88.8413 27.628 88.286V80.228L24.058 86.807C23.9673 86.977 23.871 87.1017 23.769 87.181C23.667 87.2603 23.5253 87.3 23.344 87.3C23.1513 87.3 22.9983 87.2603 22.885 87.181C22.783 87.0903 22.6867 86.9657 22.596 86.807L19.026 80.245V88.286C19.026 88.8413 18.7653 89.119 18.244 89.119ZM33.9206 89.119C33.3312 89.119 33.0366 88.8187 33.0366 88.218V77.797C33.0366 77.1963 33.3312 76.896 33.9206 76.896C34.5099 76.896 34.8046 77.1963 34.8046 77.797V88.218C34.8046 88.8187 34.5099 89.119 33.9206 89.119ZM39.4184 89.119C38.8631 89.119 38.5854 88.8357 38.5854 88.269V77.78C38.5854 77.4967 38.6534 77.2813 38.7894 77.134C38.9367 76.9753 39.1294 76.896 39.3674 76.896C39.5714 76.896 39.7301 76.9357 39.8434 77.015C39.9567 77.083 40.0814 77.2133 40.2174 77.406L46.7964 86.076V77.729C46.7964 77.1737 47.0684 76.896 47.6124 76.896C48.1564 76.896 48.4284 77.1737 48.4284 77.729V88.286C48.4284 88.5467 48.3604 88.7507 48.2244 88.898C48.0997 89.0453 47.9297 89.119 47.7144 89.119C47.4991 89.119 47.3291 89.0793 47.2044 89C47.0797 88.9207 46.9437 88.7847 46.7964 88.592L40.2174 79.905V88.269C40.2174 88.8357 39.9511 89.119 39.4184 89.119ZM56.0272 89.119C55.4379 89.119 55.1432 88.8187 55.1432 88.218V78.494H51.5392C51.0292 78.494 50.7742 78.2447 50.7742 77.746C50.7742 77.2587 51.0292 77.015 51.5392 77.015H60.4982C61.0195 77.015 61.2802 77.2587 61.2802 77.746C61.2802 78.2447 61.0195 78.494 60.4982 78.494H56.8942V88.218C56.8942 88.8187 56.6052 89.119 56.0272 89.119ZM18.227 110.119C17.6717 110.119 17.394 109.836 17.394 109.269V98.78C17.394 98.4967 17.462 98.2813 17.598 98.134C17.7453 97.9753 17.938 97.896 18.176 97.896C18.38 97.896 18.5387 97.9357 18.652 98.015C18.7653 98.083 18.89 98.2133 19.026 98.406L25.605 107.076V98.729C25.605 98.1737 25.877 97.896 26.421 97.896C26.965 97.896 27.237 98.1737 27.237 98.729V109.286C27.237 109.547 27.169 109.751 27.033 109.898C26.9083 110.045 26.7383 110.119 26.523 110.119C26.3077 110.119 26.1377 110.079 26.013 110C25.8883 109.921 25.7523 109.785 25.605 109.592L19.026 100.905V109.269C19.026 109.836 18.7597 110.119 18.227 110.119ZM31.9798 110C31.3451 110 31.0278 109.683 31.0278 109.048V98.967C31.0278 98.3323 31.3451 98.015 31.9798 98.015H38.1848C38.6721 98.015 38.9158 98.2473 38.9158 98.712C38.9158 99.1993 38.6721 99.443 38.1848 99.443H32.7278V103.2H37.8108C38.2981 103.2 38.5418 103.438 38.5418 103.914C38.5418 104.39 38.2981 104.628 37.8108 104.628H32.7278V108.572H38.1848C38.6721 108.572 38.9158 108.81 38.9158 109.286C38.9158 109.762 38.6721 110 38.1848 110H31.9798ZM45.9845 110.119C45.5085 110.119 45.1799 109.864 44.9985 109.354L41.3435 98.933C41.2415 98.6383 41.2585 98.3947 41.3945 98.202C41.5419 97.998 41.7799 97.896 42.1085 97.896C42.3579 97.896 42.5505 97.9527 42.6865 98.066C42.8339 98.1793 42.9472 98.3607 43.0265 98.61L46.0355 107.45L49.1125 98.644C49.3052 98.1453 49.6055 97.896 50.0135 97.896C50.2402 97.896 50.4159 97.9583 50.5405 98.083C50.6765 98.2077 50.7955 98.4003 50.8975 98.661L53.9405 107.552L57.0175 98.61C57.0969 98.372 57.2045 98.1963 57.3405 98.083C57.4879 97.9583 57.6805 97.896 57.9185 97.896C58.2132 97.896 58.4285 97.998 58.5645 98.202C58.7119 98.3947 58.7289 98.6383 58.6155 98.933L54.9435 109.371C54.8415 109.62 54.7169 109.807 54.5695 109.932C54.4222 110.057 54.2239 110.119 53.9745 110.119C53.7139 110.119 53.5099 110.057 53.3625 109.932C53.2152 109.807 53.0962 109.615 53.0055 109.354L49.9795 100.684L46.9195 109.371C46.8289 109.62 46.7099 109.807 46.5625 109.932C46.4265 110.057 46.2339 110.119 45.9845 110.119ZM67.1961 110.119C66.8561 110.119 66.6181 110.011 66.4821 109.796C66.3575 109.569 66.3688 109.297 66.5161 108.98L71.1231 98.644C71.2365 98.3833 71.3781 98.1963 71.5481 98.083C71.7181 97.9583 71.9165 97.896 72.1431 97.896C72.3471 97.896 72.5341 97.9583 72.7041 98.083C72.8855 98.1963 73.0328 98.3833 73.1461 98.644L77.7531 108.98C77.9005 109.309 77.9118 109.581 77.7871 109.796C77.6738 110.011 77.4528 110.119 77.1241 110.119C76.8748 110.119 76.6765 110.057 76.5291 109.932C76.3818 109.807 76.2515 109.615 76.1381 109.354L75.1521 107.076H69.0831L68.1141 109.354C68.0008 109.626 67.8761 109.824 67.7401 109.949C67.6041 110.062 67.4228 110.119 67.1961 110.119ZM72.1091 99.97L69.7121 105.648H74.5571L72.1431 99.97H72.1091ZM84.6605 110.153C83.8785 110.153 83.1248 110.062 82.3995 109.881C81.6855 109.7 81.0622 109.428 80.5295 109.065C80.3142 108.918 80.1838 108.742 80.1385 108.538C80.0932 108.323 80.1102 108.13 80.1895 107.96C80.2802 107.779 80.4105 107.654 80.5805 107.586C80.7618 107.518 80.9658 107.558 81.1925 107.705C81.7025 108.034 82.2408 108.277 82.8075 108.436C83.3742 108.583 83.9918 108.657 84.6605 108.657C85.6238 108.657 86.3322 108.487 86.7855 108.147C87.2502 107.796 87.4825 107.342 87.4825 106.787C87.4825 106.334 87.3182 105.977 86.9895 105.716C86.6608 105.444 86.1112 105.229 85.3405 105.07L83.5215 104.696C82.4448 104.469 81.6402 104.095 81.1075 103.574C80.5862 103.053 80.3255 102.35 80.3255 101.466C80.3255 100.752 80.5125 100.123 80.8865 99.579C81.2718 99.035 81.8045 98.6157 82.4845 98.321C83.1645 98.015 83.9465 97.862 84.8305 97.862C85.5332 97.862 86.1905 97.9527 86.8025 98.134C87.4258 98.3153 87.9812 98.593 88.4685 98.967C88.6612 99.103 88.7745 99.2673 88.8085 99.46C88.8425 99.6527 88.8142 99.834 88.7235 100.004C88.6328 100.163 88.4968 100.27 88.3155 100.327C88.1342 100.384 87.9245 100.338 87.6865 100.191C87.2445 99.8963 86.7912 99.6867 86.3265 99.562C85.8618 99.426 85.3575 99.358 84.8135 99.358C83.9748 99.358 83.3062 99.545 82.8075 99.919C82.3202 100.293 82.0765 100.792 82.0765 101.415C82.0765 101.891 82.2295 102.271 82.5355 102.554C82.8415 102.837 83.3515 103.053 84.0655 103.2L85.8675 103.574C87.0008 103.812 87.8452 104.18 88.4005 104.679C88.9558 105.166 89.2335 105.829 89.2335 106.668C89.2335 107.371 89.0465 107.983 88.6725 108.504C88.2985 109.025 87.7715 109.433 87.0915 109.728C86.4115 110.011 85.6012 110.153 84.6605 110.153ZM96.2357 110.153C95.4537 110.153 94.7 110.062 93.9747 109.881C93.2607 109.7 92.6373 109.428 92.1047 109.065C91.8893 108.918 91.759 108.742 91.7137 108.538C91.6683 108.323 91.6853 108.13 91.7647 107.96C91.8553 107.779 91.9857 107.654 92.1557 107.586C92.337 107.518 92.541 107.558 92.7677 107.705C93.2777 108.034 93.816 108.277 94.3827 108.436C94.9493 108.583 95.567 108.657 96.2357 108.657C97.199 108.657 97.9073 108.487 98.3607 108.147C98.8253 107.796 99.0577 107.342 99.0577 106.787C99.0577 106.334 98.8933 105.977 98.5647 105.716C98.236 105.444 97.6863 105.229 96.9157 105.07L95.0967 104.696C94.02 104.469 93.2153 104.095 92.6827 103.574C92.1613 103.053 91.9007 102.35 91.9007 101.466C91.9007 100.752 92.0877 100.123 92.4617 99.579C92.847 99.035 93.3797 98.6157 94.0597 98.321C94.7397 98.015 95.5217 97.862 96.4057 97.862C97.1083 97.862 97.7657 97.9527 98.3777 98.134C99.001 98.3153 99.5563 98.593 100.044 98.967C100.236 99.103 100.35 99.2673 100.384 99.46C100.418 99.6527 100.389 99.834 100.299 100.004C100.208 100.163 100.072 100.27 99.8907 100.327C99.7093 100.384 99.4997 100.338 99.2617 100.191C98.8197 99.8963 98.3663 99.6867 97.9017 99.562C97.437 99.426 96.9327 99.358 96.3887 99.358C95.55 99.358 94.8813 99.545 94.3827 99.919C93.8953 100.293 93.6517 100.792 93.6517 101.415C93.6517 101.891 93.8047 102.271 94.1107 102.554C94.4167 102.837 94.9267 103.053 95.6407 103.2L97.4427 103.574C98.576 103.812 99.4203 104.18 99.9757 104.679C100.531 105.166 100.809 105.829 100.809 106.668C100.809 107.371 100.622 107.983 100.248 108.504C99.8737 109.025 99.3467 109.433 98.6667 109.728C97.9867 110.011 97.1763 110.153 96.2357 110.153ZM104.768 110C104.133 110 103.816 109.683 103.816 109.048V98.967C103.816 98.3323 104.133 98.015 104.768 98.015H110.973C111.46 98.015 111.704 98.2473 111.704 98.712C111.704 99.1993 111.46 99.443 110.973 99.443H105.516V103.2H110.599C111.086 103.2 111.33 103.438 111.33 103.914C111.33 104.39 111.086 104.628 110.599 104.628H105.516V108.572H110.973C111.46 108.572 111.704 108.81 111.704 109.286C111.704 109.762 111.46 110 110.973 110H104.768ZM118.485 110.119C117.896 110.119 117.601 109.819 117.601 109.218V99.494H113.997C113.487 99.494 113.232 99.2447 113.232 98.746C113.232 98.2587 113.487 98.015 113.997 98.015H122.956C123.478 98.015 123.738 98.2587 123.738 98.746C123.738 99.2447 123.478 99.494 122.956 99.494H119.352V109.218C119.352 109.819 119.063 110.119 118.485 110.119Z" fill="#FEFEFE"/>
<path fill-rule="evenodd" clip-rule="evenodd" d="M121.178 33.6956C121.171 34.5101 121.796 35.1639 122.575 35.1559C123.354 35.1479 123.992 34.4812 124 33.6667L124.048 28.5048L128.986 28.4542C129.765 28.4462 130.402 27.7794 130.41 26.9649C130.418 26.1504 129.792 25.4965 129.013 25.5045L124.076 25.5552L124.124 20.3933C124.132 19.5788 123.506 18.925 122.727 18.9329C121.948 18.9409 121.31 19.6077 121.303 20.4222L121.254 25.5841L116.317 25.6347C115.538 25.6427 114.9 26.3095 114.892 27.124C114.885 27.9385 115.51 28.5924 116.289 28.5844L121.227 28.5337L121.178 33.6956Z" fill="#26A69A"/>
<path d="M2.21 1H146.79V-1H2.21V1ZM148 2.21V132.79H150V2.21H148ZM146.79 134H2.21001V136H146.79V134ZM1 132.79V2.21001H-1V132.79H1ZM2.21001 134C1.54174 134 1 133.458 1 132.79H-1C-1 134.563 0.437176 136 2.21001 136V134ZM148 132.79C148 133.458 147.458 134 146.79 134V136C148.563 136 150 134.563 150 132.79H148ZM146.79 1C147.458 1 148 1.54174 148 2.21H150C150 0.437162 148.563 -1 146.79 -1V1ZM2.21 -1C0.437163 -1 -1 0.437176 -1 2.21001H1C1 1.54174 1.54174 1 2.21 1V-1Z" fill="#26A69A"/>
</svg>
