<svg width="24" height="31" viewBox="0 0 24 31" fill="none" xmlns="http://www.w3.org/2000/svg">
<path d="M19.6171 10.9792H18.2159V8.11905C18.2159 4.17208 15.0772 0.96875 11.2098 0.96875C7.34241 0.96875 4.20367 4.17208 4.20367 8.11905V10.9792H2.80245C1.2611 10.9792 0 12.2662 0 13.8393V28.1399C0 29.7129 1.2611 31 2.80245 31H19.6171C21.1585 31 22.4196 29.7129 22.4196 28.1399V13.8393C22.4196 12.2662 21.1585 10.9792 19.6171 10.9792ZM6.86599 8.11905C6.86599 5.67365 8.81369 3.68586 11.2098 3.68586C13.6059 3.68586 15.5536 5.67365 15.5536 8.11905V10.9792H6.86599V8.11905ZM16.8147 22.4196H12.611V26.7098H9.80856V22.4196H5.60489V19.5595H9.80856V15.2693H12.611V19.5595H16.8147V22.4196Z" fill="#323232"/>
<rect x="4.36328" y="14.3222" width="13.0857" height="13.355" fill="#323232"/>
<rect x="6.26172" y="13" width="13" height="13" fill="white"/>
<path d="M20.5117 10H19.1367V7.14286C19.1367 3.2 16.0567 0 12.2617 0C8.46672 0 5.38672 3.2 5.38672 7.14286V10H4.01172C2.49922 10 1.26172 11.2857 1.26172 12.8571V27.1429C1.26172 28.7143 2.49922 30 4.01172 30H20.5117C22.0242 30 23.2617 28.7143 23.2617 27.1429V12.8571C23.2617 11.2857 22.0242 10 20.5117 10ZM7.99922 7.14286C7.99922 4.7 9.91047 2.71429 12.2617 2.71429C14.613 2.71429 16.5242 4.7 16.5242 7.14286V10H7.99922V7.14286ZM17.7617 21.4286H13.6367V25.7143H10.8867V21.4286H6.76172V18.5714H10.8867V14.2857H13.6367V18.5714H17.7617V21.4286Z" fill="#00B5AB"/>
</svg>
