<svg width="45" height="44" viewBox="0 0 45 44" fill="none" xmlns="http://www.w3.org/2000/svg">
<path fill-rule="evenodd" clip-rule="evenodd" d="M18.0531 41.3628C18.0396 42.7265 19.149 43.8212 20.5311 43.8078L23.5057 43.779C24.8878 43.7657 26.0193 42.6493 26.0328 41.2856L26.1844 26.0398L41.6362 25.8903C43.0183 25.8769 44.1497 24.7606 44.1633 23.3969L44.1925 20.462C44.206 19.0982 43.0966 18.0036 41.7145 18.017L26.2627 18.1665L26.4143 2.92082C26.4278 1.55712 25.3184 0.462461 23.9362 0.475838L20.9617 0.504631C19.5796 0.518009 18.4481 1.63435 18.4346 2.99805L18.283 18.2438L2.83125 18.3933C1.44911 18.4067 0.317684 19.5231 0.304125 20.8868L0.274944 23.8217C0.261385 25.1854 1.37083 26.28 2.75296 26.2666L18.2047 26.1171L18.0531 41.3628Z" fill="white"/>
</svg>
