<svg width="32" height="34" viewBox="0 0 32 34" fill="none" xmlns="http://www.w3.org/2000/svg">
<path fill-rule="evenodd" clip-rule="evenodd" d="M26.898 19.5964C28.2903 19.5821 29.4301 18.3905 29.4438 16.9349C29.4574 15.4792 28.3398 14.3108 26.9474 14.325L18.1239 14.4155L18.2105 5.19063C18.2241 3.73498 17.1065 2.56653 15.7141 2.58081C14.3218 2.59509 13.182 3.7867 13.1683 5.24234L13.0817 14.4672L4.25768 14.5577C2.86533 14.572 1.72553 15.7636 1.71187 17.2193C1.69821 18.6749 2.81586 19.8434 4.20822 19.8291L13.0323 19.7386L12.9457 28.9635C12.9321 30.4191 14.0497 31.5876 15.4421 31.5733C16.8344 31.559 17.9742 30.3674 17.9879 28.9117L18.0744 19.6869L26.898 19.5964Z" fill="#26A69A"/>
</svg>
