<svg width="19" height="19" viewBox="0 0 19 19" fill="none" xmlns="http://www.w3.org/2000/svg">
<ellipse cx="9.39553" cy="9.5" rx="9.39553" ry="9.5" fill="#26A69A"/>
<path d="M11.6339 5.31733C11.5992 5.31733 11.5645 5.30667 11.5341 5.28533C10.7011 4.75733 9.98088 4.53333 9.1175 4.53333C8.25845 4.53333 7.44279 4.784 6.70089 5.28533C6.59676 5.35467 6.4666 5.30667 6.40586 5.17867C6.34946 5.05067 6.38851 4.88533 6.49263 4.816C7.29962 4.27733 8.18469 4 9.1175 4C10.0416 4 10.8486 4.25067 11.7337 4.81067C11.8422 4.88 11.8812 5.04 11.8248 5.168C11.7857 5.264 11.712 5.31733 11.6339 5.31733ZM5.42533 8.11733C5.38195 8.11733 5.33856 8.10133 5.29951 8.06933C5.19972 7.984 5.17803 7.81867 5.24745 7.696C5.67697 6.94933 6.22364 6.36267 6.87443 5.952C8.23676 5.088 9.98088 5.08267 11.3475 5.94667C11.9983 6.35733 12.545 6.93867 12.9745 7.68C13.0439 7.79733 13.0223 7.968 12.9225 8.05333C12.8227 8.13867 12.6882 8.112 12.6188 7.98933C12.2283 7.31733 11.7337 6.78933 11.148 6.42133C9.90279 5.63733 8.31051 5.63733 7.06967 6.42667C6.47962 6.8 5.98501 7.33333 5.59454 8.00533C5.55983 8.08 5.49475 8.11733 5.42533 8.11733ZM8.13697 14.5547C8.08057 14.5547 8.02417 14.528 7.98512 14.4747C7.60766 14.0107 7.40374 13.712 7.11306 13.0667C6.81369 12.4107 6.6575 11.6107 6.6575 10.752C6.6575 9.168 7.75951 7.87733 9.11316 7.87733C10.4668 7.87733 11.5688 9.168 11.5688 10.752C11.5688 10.9013 11.4734 11.0187 11.3519 11.0187C11.2304 11.0187 11.135 10.9013 11.135 10.752C11.135 9.46133 10.2282 8.41067 9.11316 8.41067C7.99813 8.41067 7.09136 9.46133 7.09136 10.752C7.09136 11.52 7.2302 12.2293 7.49485 12.8053C7.77253 13.4187 7.96342 13.68 8.2975 14.096C8.37993 14.2027 8.37993 14.368 8.2975 14.4747C8.24977 14.528 8.19337 14.5547 8.13697 14.5547ZM11.2478 13.568C10.7315 13.568 10.2759 13.408 9.90279 13.0933C9.25633 12.5547 8.8702 11.68 8.8702 10.752C8.8702 10.6027 8.96565 10.4853 9.08713 10.4853C9.20861 10.4853 9.30406 10.6027 9.30406 10.752C9.30406 11.504 9.61644 12.2133 10.1458 12.6507C10.4538 12.9067 10.8139 13.0293 11.2478 13.0293C11.3519 13.0293 11.5254 13.0133 11.699 12.976C11.8161 12.9493 11.9289 13.0453 11.9506 13.1947C11.9723 13.3387 11.8942 13.4773 11.7727 13.504C11.5254 13.5627 11.3085 13.568 11.2478 13.568ZM10.3757 14.6667C10.3583 14.6667 10.3366 14.6613 10.3193 14.656C9.62945 14.4213 9.17824 14.1067 8.70533 13.536C8.09792 12.7947 7.76385 11.808 7.76385 10.752C7.76385 9.888 8.36258 9.184 9.10014 9.184C9.83771 9.184 10.4364 9.888 10.4364 10.752C10.4364 11.3227 10.8399 11.7867 11.3389 11.7867C11.8378 11.7867 12.2413 11.3227 12.2413 10.752C12.2413 8.74133 10.8313 7.10933 9.0958 7.10933C7.86364 7.10933 6.7356 7.952 6.22798 9.25867C6.05877 9.69067 5.972 10.1973 5.972 10.752C5.972 11.168 6.00237 11.824 6.26269 12.6773C6.30607 12.816 6.24967 12.9707 6.13687 13.0187C6.02406 13.072 5.89824 12.9973 5.85919 12.864C5.6466 12.1653 5.54248 11.472 5.54248 10.752C5.54248 10.112 5.64226 9.53067 5.8375 9.024C6.41454 7.536 7.69443 6.57067 9.0958 6.57067C11.0699 6.57067 12.6752 8.44267 12.6752 10.7467C12.6752 11.6107 12.0764 12.3147 11.3389 12.3147C10.6013 12.3147 10.0026 11.6107 10.0026 10.7467C10.0026 10.176 9.59908 9.712 9.10014 9.712C8.6012 9.712 8.19771 10.176 8.19771 10.7467C8.19771 11.6587 8.48406 12.512 9.00903 13.152C9.4212 13.6533 9.81602 13.9307 10.4278 14.1387C10.5449 14.176 10.61 14.3253 10.5796 14.464C10.5579 14.5867 10.4668 14.6667 10.3757 14.6667Z" fill="#FEFEFE"/>
</svg>
