<svg width="147" height="135" viewBox="0 0 147 135" fill="none" xmlns="http://www.w3.org/2000/svg">
<rect width="147" height="135" rx="2.21277" fill="#B1E7E1"/>
<path d="M133.776 27C133.776 35.2843 126.924 42 118.472 42C110.02 42 103.168 35.2843 103.168 27C103.168 18.7157 110.02 12 118.472 12C126.924 12 133.776 18.7157 133.776 27Z" fill="#26A69A"/>
<path d="M26.744 87.912C26.846 88.0593 26.897 88.218 26.897 88.388C26.897 88.592 26.812 88.7677 26.642 88.915C26.4833 89.051 26.2963 89.119 26.081 89.119C25.7637 89.119 25.5087 88.9773 25.316 88.694L23.038 85.158C22.7773 84.75 22.4997 84.4667 22.205 84.308C21.9103 84.138 21.525 84.053 21.049 84.053H19.128V88.201C19.128 88.473 19.0487 88.6883 18.89 88.847C18.7427 89.0057 18.533 89.085 18.261 89.085C18.0003 89.085 17.7907 89.0057 17.632 88.847C17.4733 88.6883 17.394 88.473 17.394 88.201V77.865C17.394 77.6043 17.4677 77.4003 17.615 77.253C17.7737 77.0943 17.989 77.015 18.261 77.015H22.494C23.82 77.015 24.8287 77.3097 25.52 77.899C26.2227 78.4883 26.574 79.3497 26.574 80.483C26.574 81.4237 26.3077 82.1887 25.775 82.778C25.2423 83.356 24.483 83.7243 23.497 83.883C23.7917 83.9623 24.058 84.104 24.296 84.308C24.534 84.512 24.7663 84.7953 24.993 85.158L26.744 87.912ZM22.29 82.642C23.174 82.642 23.8257 82.472 24.245 82.132C24.6757 81.7807 24.891 81.2423 24.891 80.517C24.891 79.7917 24.6813 79.2647 24.262 78.936C23.8427 78.596 23.1853 78.426 22.29 78.426H19.111V82.642H22.29ZM30.9983 89C30.7263 89 30.511 88.9263 30.3523 88.779C30.205 88.6203 30.1313 88.4107 30.1313 88.15V77.865C30.1313 77.6043 30.205 77.4003 30.3523 77.253C30.511 77.0943 30.7263 77.015 30.9983 77.015H37.2543C37.515 77.015 37.7133 77.0773 37.8493 77.202C37.9966 77.3267 38.0703 77.5023 38.0703 77.729C38.0703 77.9557 37.9966 78.1313 37.8493 78.256C37.7133 78.3693 37.515 78.426 37.2543 78.426H31.8483V82.2H36.9143C37.175 82.2 37.3733 82.2623 37.5093 82.387C37.6566 82.5117 37.7303 82.6873 37.7303 82.914C37.7303 83.1407 37.6566 83.3163 37.5093 83.441C37.3733 83.5657 37.175 83.628 36.9143 83.628H31.8483V87.589H37.2543C37.7983 87.589 38.0703 87.8213 38.0703 88.286C38.0703 88.5127 37.9966 88.6883 37.8493 88.813C37.7133 88.9377 37.515 89 37.2543 89H30.9983ZM51.7176 76.93C51.967 76.93 52.171 77.015 52.3296 77.185C52.4883 77.3437 52.5676 77.5533 52.5676 77.814V88.252C52.5676 88.5127 52.494 88.7167 52.3466 88.864C52.2106 89.0113 52.018 89.085 51.7686 89.085C51.5306 89.085 51.3436 89.0113 51.2076 88.864C51.0716 88.7167 51.0036 88.5127 51.0036 88.252V80.347L47.6716 86.688C47.4563 87.0847 47.1786 87.283 46.8386 87.283C46.4986 87.283 46.221 87.0847 46.0056 86.688L42.6566 80.415V88.252C42.6566 88.5127 42.5886 88.7167 42.4526 88.864C42.3166 89.0113 42.124 89.085 41.8746 89.085C41.6366 89.085 41.444 89.0113 41.2966 88.864C41.1606 88.7053 41.0926 88.5013 41.0926 88.252V77.814C41.0926 77.5533 41.172 77.3437 41.3306 77.185C41.4893 77.015 41.6933 76.93 41.9426 76.93C42.294 76.93 42.5773 77.134 42.7926 77.542L46.8556 85.311L50.8846 77.542C51.1 77.134 51.3776 76.93 51.7176 76.93ZM57.2366 89.085C56.9759 89.085 56.7663 89.0057 56.6076 88.847C56.4489 88.6883 56.3696 88.473 56.3696 88.201V77.814C56.3696 77.5533 56.4489 77.3437 56.6076 77.185C56.7663 77.015 56.9759 76.93 57.2366 76.93C57.5086 76.93 57.7239 77.0093 57.8826 77.168C58.0413 77.3267 58.1206 77.542 58.1206 77.814V88.201C58.1206 88.473 58.0413 88.6883 57.8826 88.847C57.7353 89.0057 57.5199 89.085 57.2366 89.085ZM70.9118 76.93C71.1611 76.93 71.3595 77.015 71.5068 77.185C71.6655 77.3437 71.7448 77.5533 71.7448 77.814V88.201C71.7448 88.4617 71.6655 88.677 71.5068 88.847C71.3481 89.0057 71.1441 89.085 70.8948 89.085C70.6001 89.085 70.3735 88.9717 70.2148 88.745L63.5508 79.956V88.201C63.5508 88.4617 63.4715 88.677 63.3128 88.847C63.1655 89.0057 62.9671 89.085 62.7178 89.085C62.4685 89.085 62.2701 89.0057 62.1228 88.847C61.9755 88.6883 61.9018 88.473 61.9018 88.201V77.814C61.9018 77.5533 61.9811 77.3437 62.1398 77.185C62.2985 77.015 62.5025 76.93 62.7518 76.93C63.0465 76.93 63.2731 77.0433 63.4318 77.27L70.0958 86.076V77.814C70.0958 77.5533 70.1695 77.3437 70.3168 77.185C70.4641 77.015 70.6625 76.93 70.9118 76.93ZM79.2756 89.085C79.0149 89.085 78.7996 89.0057 78.6296 88.847C78.4709 88.677 78.3916 88.4617 78.3916 88.201V78.477H74.9916C74.4476 78.477 74.1756 78.2333 74.1756 77.746C74.1756 77.508 74.2436 77.3267 74.3796 77.202C74.5269 77.0773 74.7309 77.015 74.9916 77.015H83.5596C83.8203 77.015 84.0186 77.0773 84.1546 77.202C84.3019 77.3267 84.3756 77.508 84.3756 77.746C84.3756 78.2333 84.1036 78.477 83.5596 78.477H80.1596V88.201C80.1596 88.4617 80.0803 88.677 79.9216 88.847C79.7629 89.0057 79.5476 89.085 79.2756 89.085ZM21.355 110.136C20.4937 110.136 19.672 110.017 18.89 109.779C18.1193 109.541 17.5017 109.212 17.037 108.793C16.8217 108.612 16.714 108.379 16.714 108.096C16.714 107.892 16.7707 107.722 16.884 107.586C16.9973 107.439 17.1333 107.365 17.292 107.365C17.4507 107.365 17.6433 107.439 17.87 107.586C18.8787 108.334 20.029 108.708 21.321 108.708C22.2277 108.708 22.9247 108.538 23.412 108.198C23.8993 107.858 24.143 107.371 24.143 106.736C24.143 106.237 23.9163 105.863 23.463 105.614C23.0097 105.365 22.2843 105.127 21.287 104.9C20.335 104.696 19.553 104.464 18.941 104.203C18.329 103.942 17.8473 103.591 17.496 103.149C17.156 102.696 16.986 102.123 16.986 101.432C16.986 100.741 17.173 100.129 17.547 99.596C17.9323 99.052 18.465 98.6327 19.145 98.338C19.825 98.032 20.6013 97.879 21.474 97.879C22.2787 97.879 23.021 97.9923 23.701 98.219C24.381 98.4457 24.959 98.78 25.435 99.222C25.6617 99.4147 25.775 99.647 25.775 99.919C25.775 100.112 25.7127 100.282 25.588 100.429C25.4747 100.576 25.3387 100.65 25.18 100.65C25.0327 100.65 24.8457 100.576 24.619 100.429C24.0977 100.032 23.6047 99.749 23.14 99.579C22.6867 99.3977 22.137 99.307 21.491 99.307C20.6183 99.307 19.9383 99.4883 19.451 99.851C18.9637 100.202 18.72 100.695 18.72 101.33C18.72 101.874 18.9353 102.288 19.366 102.571C19.7967 102.843 20.488 103.092 21.44 103.319C22.4373 103.546 23.242 103.784 23.854 104.033C24.4773 104.271 24.9703 104.605 25.333 105.036C25.707 105.455 25.894 105.999 25.894 106.668C25.894 107.348 25.7013 107.954 25.316 108.487C24.942 109.008 24.4093 109.416 23.718 109.711C23.038 109.994 22.2503 110.136 21.355 110.136ZM39.5432 108.98C39.5999 109.116 39.6282 109.229 39.6282 109.32C39.6282 109.535 39.5375 109.717 39.3562 109.864C39.1862 110.011 38.9935 110.085 38.7782 110.085C38.6309 110.085 38.4892 110.045 38.3532 109.966C38.2285 109.875 38.1322 109.751 38.0642 109.592L36.9422 107.042H30.7202L29.5982 109.592C29.5302 109.751 29.4282 109.875 29.2922 109.966C29.1562 110.045 29.0145 110.085 28.8672 110.085C28.6405 110.085 28.4365 110.011 28.2552 109.864C28.0852 109.717 28.0002 109.535 28.0002 109.32C28.0002 109.229 28.0285 109.116 28.0852 108.98L32.8792 98.491C32.9585 98.3097 33.0832 98.168 33.2532 98.066C33.4345 97.964 33.6215 97.913 33.8142 97.913C34.0069 97.913 34.1882 97.964 34.3582 98.066C34.5395 98.168 34.6699 98.3097 34.7492 98.491L39.5432 108.98ZM31.3492 105.648H36.3302L33.8312 100.021L31.3492 105.648ZM53.0956 97.93C53.3449 97.93 53.5489 98.015 53.7076 98.185C53.8662 98.3437 53.9456 98.5533 53.9456 98.814V109.252C53.9456 109.513 53.8719 109.717 53.7246 109.864C53.5886 110.011 53.3959 110.085 53.1466 110.085C52.9086 110.085 52.7216 110.011 52.5856 109.864C52.4496 109.717 52.3816 109.513 52.3816 109.252V101.347L49.0496 107.688C48.8342 108.085 48.5566 108.283 48.2166 108.283C47.8766 108.283 47.5989 108.085 47.3836 107.688L44.0346 101.415V109.252C44.0346 109.513 43.9666 109.717 43.8306 109.864C43.6946 110.011 43.5019 110.085 43.2526 110.085C43.0146 110.085 42.8219 110.011 42.6746 109.864C42.5386 109.705 42.4706 109.501 42.4706 109.252V98.814C42.4706 98.5533 42.5499 98.3437 42.7086 98.185C42.8672 98.015 43.0712 97.93 43.3206 97.93C43.6719 97.93 43.9552 98.134 44.1706 98.542L48.2336 106.311L52.2626 98.542C52.4779 98.134 52.7556 97.93 53.0956 97.93ZM58.6145 110C58.3425 110 58.1272 109.926 57.9685 109.779C57.8212 109.62 57.7475 109.411 57.7475 109.15V98.865C57.7475 98.6043 57.8212 98.4003 57.9685 98.253C58.1272 98.0943 58.3425 98.015 58.6145 98.015H64.8705C65.1312 98.015 65.3295 98.0773 65.4655 98.202C65.6128 98.3267 65.6865 98.5023 65.6865 98.729C65.6865 98.9557 65.6128 99.1313 65.4655 99.256C65.3295 99.3693 65.1312 99.426 64.8705 99.426H59.4645V103.2H64.5305C64.7912 103.2 64.9895 103.262 65.1255 103.387C65.2728 103.512 65.3465 103.687 65.3465 103.914C65.3465 104.141 65.2728 104.316 65.1255 104.441C64.9895 104.566 64.7912 104.628 64.5305 104.628H59.4645V108.589H64.8705C65.4145 108.589 65.6865 108.821 65.6865 109.286C65.6865 109.513 65.6128 109.688 65.4655 109.813C65.3295 109.938 65.1312 110 64.8705 110H58.6145ZM84.7483 108.98C84.8049 109.116 84.8333 109.229 84.8333 109.32C84.8333 109.535 84.7426 109.717 84.5613 109.864C84.3913 110.011 84.1986 110.085 83.9833 110.085C83.8359 110.085 83.6943 110.045 83.5583 109.966C83.4336 109.875 83.3373 109.751 83.2693 109.592L82.1473 107.042H75.9253L74.8033 109.592C74.7353 109.751 74.6333 109.875 74.4973 109.966C74.3613 110.045 74.2196 110.085 74.0723 110.085C73.8456 110.085 73.6416 110.011 73.4603 109.864C73.2903 109.717 73.2053 109.535 73.2053 109.32C73.2053 109.229 73.2336 109.116 73.2903 108.98L78.0843 98.491C78.1636 98.3097 78.2883 98.168 78.4583 98.066C78.6396 97.964 78.8266 97.913 79.0193 97.913C79.2119 97.913 79.3933 97.964 79.5633 98.066C79.7446 98.168 79.8749 98.3097 79.9543 98.491L84.7483 108.98ZM76.5543 105.648H81.5353L79.0363 100.021L76.5543 105.648ZM91.5034 110.136C90.6421 110.136 89.8204 110.017 89.0384 109.779C88.2678 109.541 87.6501 109.212 87.1854 108.793C86.9701 108.612 86.8624 108.379 86.8624 108.096C86.8624 107.892 86.9191 107.722 87.0324 107.586C87.1458 107.439 87.2818 107.365 87.4404 107.365C87.5991 107.365 87.7918 107.439 88.0184 107.586C89.0271 108.334 90.1774 108.708 91.4694 108.708C92.3761 108.708 93.0731 108.538 93.5604 108.198C94.0478 107.858 94.2914 107.371 94.2914 106.736C94.2914 106.237 94.0648 105.863 93.6114 105.614C93.1581 105.365 92.4328 105.127 91.4354 104.9C90.4834 104.696 89.7014 104.464 89.0894 104.203C88.4774 103.942 87.9958 103.591 87.6444 103.149C87.3044 102.696 87.1344 102.123 87.1344 101.432C87.1344 100.741 87.3214 100.129 87.6954 99.596C88.0808 99.052 88.6134 98.6327 89.2934 98.338C89.9734 98.032 90.7498 97.879 91.6224 97.879C92.4271 97.879 93.1694 97.9923 93.8494 98.219C94.5294 98.4457 95.1074 98.78 95.5834 99.222C95.8101 99.4147 95.9234 99.647 95.9234 99.919C95.9234 100.112 95.8611 100.282 95.7364 100.429C95.6231 100.576 95.4871 100.65 95.3284 100.65C95.1811 100.65 94.9941 100.576 94.7674 100.429C94.2461 100.032 93.7531 99.749 93.2884 99.579C92.8351 99.3977 92.2854 99.307 91.6394 99.307C90.7668 99.307 90.0868 99.4883 89.5994 99.851C89.1121 100.202 88.8684 100.695 88.8684 101.33C88.8684 101.874 89.0838 102.288 89.5144 102.571C89.9451 102.843 90.6364 103.092 91.5884 103.319C92.5858 103.546 93.3904 103.784 94.0024 104.033C94.6258 104.271 95.1188 104.605 95.4814 105.036C95.8554 105.455 96.0424 105.999 96.0424 106.668C96.0424 107.348 95.8498 107.954 95.4644 108.487C95.0904 109.008 94.5578 109.416 93.8664 109.711C93.1864 109.994 92.3988 110.136 91.5034 110.136ZM103.162 110.136C102.3 110.136 101.479 110.017 100.697 109.779C99.926 109.541 99.3083 109.212 98.8436 108.793C98.6283 108.612 98.5206 108.379 98.5206 108.096C98.5206 107.892 98.5773 107.722 98.6906 107.586C98.804 107.439 98.94 107.365 99.0986 107.365C99.2573 107.365 99.45 107.439 99.6766 107.586C100.685 108.334 101.836 108.708 103.128 108.708C104.034 108.708 104.731 108.538 105.219 108.198C105.706 107.858 105.95 107.371 105.95 106.736C105.95 106.237 105.723 105.863 105.27 105.614C104.816 105.365 104.091 105.127 103.094 104.9C102.142 104.696 101.36 104.464 100.748 104.203C100.136 103.942 99.654 103.591 99.3026 103.149C98.9626 102.696 98.7926 102.123 98.7926 101.432C98.7926 100.741 98.9796 100.129 99.3536 99.596C99.739 99.052 100.272 98.6327 100.952 98.338C101.632 98.032 102.408 97.879 103.281 97.879C104.085 97.879 104.828 97.9923 105.508 98.219C106.188 98.4457 106.766 98.78 107.242 99.222C107.468 99.4147 107.582 99.647 107.582 99.919C107.582 100.112 107.519 100.282 107.395 100.429C107.281 100.576 107.145 100.65 106.987 100.65C106.839 100.65 106.652 100.576 106.426 100.429C105.904 100.032 105.411 99.749 104.947 99.579C104.493 99.3977 103.944 99.307 103.298 99.307C102.425 99.307 101.745 99.4883 101.258 99.851C100.77 100.202 100.527 100.695 100.527 101.33C100.527 101.874 100.742 102.288 101.173 102.571C101.603 102.843 102.295 103.092 103.247 103.319C104.244 103.546 105.049 103.784 105.661 104.033C106.284 104.271 106.777 104.605 107.14 105.036C107.514 105.455 107.701 105.999 107.701 106.668C107.701 107.348 107.508 107.954 107.123 108.487C106.749 109.008 106.216 109.416 105.525 109.711C104.845 109.994 104.057 110.136 103.162 110.136ZM111.726 110C111.454 110 111.239 109.926 111.08 109.779C110.933 109.62 110.859 109.411 110.859 109.15V98.865C110.859 98.6043 110.933 98.4003 111.08 98.253C111.239 98.0943 111.454 98.015 111.726 98.015H117.982C118.243 98.015 118.441 98.0773 118.577 98.202C118.724 98.3267 118.798 98.5023 118.798 98.729C118.798 98.9557 118.724 99.1313 118.577 99.256C118.441 99.3693 118.243 99.426 117.982 99.426H112.576V103.2H117.642C117.903 103.2 118.101 103.262 118.237 103.387C118.384 103.512 118.458 103.687 118.458 103.914C118.458 104.141 118.384 104.316 118.237 104.441C118.101 104.566 117.903 104.628 117.642 104.628H112.576V108.589H117.982C118.526 108.589 118.798 108.821 118.798 109.286C118.798 109.513 118.724 109.688 118.577 109.813C118.441 109.938 118.243 110 117.982 110H111.726ZM125.444 110.085C125.183 110.085 124.968 110.006 124.798 109.847C124.639 109.677 124.56 109.462 124.56 109.201V99.477H121.16C120.616 99.477 120.344 99.2333 120.344 98.746C120.344 98.508 120.412 98.3267 120.548 98.202C120.695 98.0773 120.899 98.015 121.16 98.015H129.728C129.988 98.015 130.187 98.0773 130.323 98.202C130.47 98.3267 130.544 98.508 130.544 98.746C130.544 99.2333 130.272 99.477 129.728 99.477H126.328V109.201C126.328 109.462 126.248 109.677 126.09 109.847C125.931 110.006 125.716 110.085 125.444 110.085Z" fill="#26A69A"/>
<path fill-rule="evenodd" clip-rule="evenodd" d="M117.178 33.6956C117.171 34.5101 117.796 35.1639 118.575 35.1559C119.354 35.1479 119.992 34.4812 120 33.6667L120.048 28.5048L124.986 28.4542C125.765 28.4462 126.402 27.7794 126.41 26.9649C126.418 26.1504 125.792 25.4965 125.013 25.5045L120.076 25.5552L120.124 20.3933C120.132 19.5788 119.506 18.925 118.727 18.9329C117.948 18.9409 117.31 19.6077 117.303 20.4222L117.254 25.5841L112.317 25.6347C111.538 25.6427 110.9 26.3095 110.892 27.124C110.885 27.9385 111.51 28.5924 112.289 28.5844L117.227 28.5337L117.178 33.6956Z" fill="#B1E7E1"/>
</svg>
