<svg width="10" height="10" viewBox="0 0 10 10" fill="none" xmlns="http://www.w3.org/2000/svg">
<path d="M4.99998 4.5835C4.88947 4.5835 4.78349 4.62739 4.70535 4.70553C4.62721 4.78367 4.58331 4.88966 4.58331 5.00016V6.66683C4.58331 6.77734 4.62721 6.88332 4.70535 6.96146C4.78349 7.0396 4.88947 7.0835 4.99998 7.0835C5.11049 7.0835 5.21647 7.0396 5.29461 6.96146C5.37275 6.88332 5.41665 6.77734 5.41665 6.66683V5.00016C5.41665 4.88966 5.37275 4.78367 5.29461 4.70553C5.21647 4.62739 5.11049 4.5835 4.99998 4.5835ZM5.15831 2.95016C5.05687 2.90849 4.94309 2.90849 4.84165 2.95016C4.7905 2.96999 4.74377 2.99973 4.70415 3.03766C4.66734 3.07816 4.63775 3.12467 4.61665 3.17516C4.59332 3.22461 4.58191 3.27884 4.58331 3.3335C4.583 3.38833 4.59351 3.44269 4.61424 3.49346C4.63498 3.54422 4.66553 3.5904 4.70415 3.62933C4.74465 3.66613 4.79115 3.69573 4.84165 3.71683C4.90477 3.74276 4.9733 3.75279 5.04121 3.74604C5.10912 3.73929 5.17433 3.71596 5.23111 3.67811C5.28789 3.64025 5.33451 3.58903 5.36686 3.52894C5.39921 3.46885 5.41631 3.40174 5.41665 3.3335C5.41511 3.22318 5.37195 3.11751 5.29581 3.03766C5.25619 2.99973 5.20946 2.96999 5.15831 2.95016ZM4.99998 0.833496C4.17589 0.833496 3.37031 1.07787 2.68511 1.53571C1.9999 1.99355 1.46585 2.64429 1.15048 3.40565C0.835118 4.16701 0.752604 5.00478 0.913376 5.81304C1.07415 6.62129 1.47098 7.36372 2.0537 7.94644C2.63642 8.52916 3.37885 8.926 4.18711 9.08677C4.99536 9.24754 5.83314 9.16503 6.5945 8.84966C7.35585 8.5343 8.0066 8.00024 8.46444 7.31504C8.92228 6.62983 9.16665 5.82425 9.16665 5.00016C9.16665 4.45299 9.05887 3.91117 8.84948 3.40565C8.64008 2.90012 8.33317 2.4408 7.94626 2.05388C7.55935 1.66697 7.10002 1.36006 6.5945 1.15066C6.08897 0.94127 5.54716 0.833496 4.99998 0.833496ZM4.99998 8.3335C4.34071 8.3335 3.69624 8.138 3.14808 7.77173C2.59992 7.40546 2.17268 6.88486 1.92038 6.27577C1.66809 5.66669 1.60208 4.99646 1.7307 4.34986C1.85931 3.70326 2.17678 3.10931 2.64296 2.64314C3.10913 2.17696 3.70308 1.8595 4.34968 1.73088C4.99628 1.60226 5.66651 1.66827 6.27559 1.92056C6.88468 2.17286 7.40527 2.6001 7.77155 3.14826C8.13782 3.69643 8.33331 4.34089 8.33331 5.00016C8.33331 5.88422 7.98213 6.73206 7.357 7.35718C6.73188 7.98231 5.88404 8.3335 4.99998 8.3335Z" fill="#26A69A"/>
</svg>
