<svg width="62" height="61" viewBox="0 0 62 61" fill="none" xmlns="http://www.w3.org/2000/svg">
<rect y="3" width="58" height="58" rx="8" fill="#323232"/>
<rect x="4" width="58" height="58" rx="8" fill="#26A69A"/>
<path d="M36.2855 24.5C35.2946 21.5875 32.6121 19.5 29.4584 19.5C25.4588 19.5 22.2084 22.8625 22.2084 27C22.2084 31.1375 25.4588 34.5 29.4584 34.5C32.6121 34.5 35.2946 32.4125 36.2855 29.5H41.5417V34.5H46.375V29.5H48.7917V24.5H36.2855ZM29.4584 29.5C28.1292 29.5 27.0417 28.375 27.0417 27C27.0417 25.625 28.1292 24.5 29.4584 24.5C30.7875 24.5 31.875 25.625 31.875 27C31.875 28.375 30.7875 29.5 29.4584 29.5Z" fill="white"/>
</svg>
