<svg width="15" height="14" viewBox="0 0 15 14" fill="none" xmlns="http://www.w3.org/2000/svg">
    <path d="m12.167 8.93 1.108-1.107a1.169 1.169 0 0 0 0-1.651l-1.108-1.103V3.5A1.17 1.17 0 0 0 11 2.333H9.43L8.324 1.225a1.169 1.169 0 0 0-1.651 0L5.569 2.333H4A1.17 1.17 0 0 0 2.833 3.5v1.57L1.725 6.177a1.169 1.169 0 0 0 0 1.65l1.108 1.109V10.5A1.17 1.17 0 0 0 4 11.667h1.57l1.108 1.108a1.169 1.169 0 0 0 1.65 0l1.109-1.108H11a1.17 1.17 0 0 0 1.167-1.167V8.93zM7.5 10.5C5.57 10.5 4 8.93 4 7s1.57-3.5 3.5-3.5S11 5.07 11 7s-1.57 3.5-3.5 3.5z" fill="#26A69A"/>
</svg>
