<svg width="132" height="128" viewBox="0 0 132 128" fill="none" xmlns="http://www.w3.org/2000/svg">
    <ellipse cx="66" cy="64" rx="66" ry="64" fill="#D2F6F2"/>
    <path fill-rule="evenodd" clip-rule="evenodd" d="m71.47 26.21-3.133 3.29.013.002c-2.302 2.28-4.15 7.271-4.246 11.017-.697 3.066 1.267 12.879 3.92 16.403l-3.29 8.873a4.463 4.463 0 0 0-.85-.281c-2.355-.524-4.662.939-5.152 3.267a4.337 4.337 0 0 0 .956 3.704l-9.718 10.27a5.963 5.963 0 0 0-2.288-1.112 5.77 5.77 0 0 0-5.048 1.13l-11.082-8.114c.177-.338.31-.709.39-1.104.455-2.239-.955-4.438-3.15-4.912-2.195-.475-4.342.956-4.797 3.195-.455 2.24.956 4.439 3.15 4.913a3.96 3.96 0 0 0 2.68-.361l11.323 8.289c-.168.355-.3.735-.392 1.134-.7 3.063 1.264 6.163 4.388 6.923 3.124.76 6.225-1.107 6.926-4.17.31-1.353.099-2.712-.501-3.874L61.81 73.868c.099.03.2.055.301.078 2.356.524 4.663-.938 5.152-3.267.021-.101.039-.202.053-.303l9.005-.879c2.226 4.216 14.493 9.018 18.617 8.496 4.635.393 12.098-1.495 15.512-4.31l.008.257 4.342-3.546-4.574-3.377.002.047c-3.483-3.252-10.716-6.077-15.837-6.358-4.327-.238-14.156 2.095-17.376 5.391l-9.29.907 3.405-9.18c2.98-1.862 5.878-10.124 6.08-13.893.23-4.262-1.332-10.488-3.551-13.651l.035.005-2.223-4.076z" fill="#26A69A"/>
</svg>
