<svg width="188" height="145" viewBox="0 0 188 145" fill="none" xmlns="http://www.w3.org/2000/svg">
<rect width="188" height="112" rx="5.40377" fill="#D2F6F2"/>
<rect x="66.3574" y="63.4395" width="17.0299" height="19.7469" fill="#D2F6F2"/>
<path fill-rule="evenodd" clip-rule="evenodd" d="M100.417 21.8636L97.7196 24.6961L97.7297 24.6976C95.7482 26.6601 94.1579 30.9573 94.0751 34.182C93.4753 36.8205 95.1658 45.2674 97.4496 48.3013L94.6176 55.9377C94.3874 55.8352 94.1437 55.7541 93.8886 55.6973C91.8608 55.2462 89.8753 56.5052 89.4539 58.5096C89.2083 59.6778 89.5482 60.8414 90.2761 61.6982L81.9112 70.5387C81.3486 70.095 80.683 69.7614 79.9415 69.581C78.3431 69.1921 76.7518 69.6021 75.5972 70.5523L66.0559 63.5669C66.2077 63.2757 66.3219 62.9577 66.3909 62.618C66.7824 60.6907 65.5681 58.7974 63.6789 58.3894C61.7896 57.9813 59.9407 59.213 59.5493 61.1404C59.1578 63.0677 60.372 64.961 62.2613 65.369C63.0766 65.5451 63.8844 65.4158 64.5708 65.057L74.3174 72.1928C74.1727 72.4993 74.0586 72.8262 73.9798 73.1707C73.3766 75.8075 75.0676 78.4756 77.7569 79.13C80.4462 79.7843 83.1153 78.1772 83.7186 75.5403C83.9849 74.3761 83.804 73.2059 83.2875 72.2055L92.1032 62.8886C92.1882 62.9138 92.2747 62.9362 92.3626 62.9558C94.3904 63.4069 96.3758 62.1478 96.7972 60.1435C96.8155 60.0563 96.8306 59.9692 96.8425 59.8822L104.594 59.1257C106.51 62.7548 117.071 66.8882 120.62 66.4387C124.609 66.7775 131.031 65.1528 133.97 62.7305L133.978 62.9494L137.715 59.8966L133.778 56.9896L133.779 57.0284C130.78 54.2304 124.556 51.8 120.149 51.5581C116.425 51.3535 107.964 53.3614 105.192 56.1993L97.1923 56.98L100.123 49.0781C102.688 47.4764 105.183 40.3634 105.357 37.1187C105.554 33.4502 104.21 28.0903 102.3 25.3675L102.33 25.372L100.417 21.8636Z" fill="#26A69A"/>
</svg>
