<svg width="27" height="24" viewBox="0 0 27 24" fill="none" xmlns="http://www.w3.org/2000/svg">
<path d="M19.125 12C16.02 12 13.5 14.24 13.5 17C13.5 19.76 16.02 22 19.125 22C22.23 22 24.75 19.76 24.75 17C24.75 14.24 22.23 12 19.125 12ZM20.9812 19.35L18.5625 17.2V14H19.6875V16.79L21.7688 18.64L20.9812 19.35ZM20.25 3H16.6725C16.2 1.84 14.9625 1 13.5 1C12.0375 1 10.8 1.84 10.3275 3H6.75C5.5125 3 4.5 3.9 4.5 5V20C4.5 21.1 5.5125 22 6.75 22H13.6237C12.96 21.43 12.42 20.75 12.0262 20H6.75V5H9V8H18V5H20.25V10.08C21.0487 10.18 21.8025 10.39 22.5 10.68V5C22.5 3.9 21.4875 3 20.25 3ZM13.5 5C12.8813 5 12.375 4.55 12.375 4C12.375 3.45 12.8813 3 13.5 3C14.1187 3 14.625 3.45 14.625 4C14.625 4.55 14.1187 5 13.5 5Z" fill="#CDCDCD"/>
</svg>
