<svg width="74" height="73" viewBox="0 0 74 73" fill="none" xmlns="http://www.w3.org/2000/svg">
    <path fill="#fff" d="M0 0h74v73H0z"/>
    <path d="M26.811 35.971c2.37 0 4.29-1.895 4.29-4.232s-1.92-4.232-4.29-4.232c-2.369 0-4.29 1.895-4.29 4.232s1.921 4.232 4.29 4.232z" fill="#26A69A"/>
    <path d="M37.505 5.29c-17.168 0-31.07 13.745-31.07 30.681s13.902 30.681 31.07 30.681c17.199 0 31.133-13.745 31.133-30.681S54.704 5.29 37.505 5.29zm.031 55.226c-13.747 0-24.881-10.984-24.881-24.545 0-13.561 11.134-24.545 24.881-24.545S62.417 22.41 62.417 35.971c0 13.561-11.134 24.545-24.881 24.545zm0-10.791c-2.27 0-4.63-1.073-6.435-2.116-.373.43-3.287 1.065-3.753 1.587 2.674 1.687 6.767 3.65 10.188 3.65 3.452 0 6.593-1.013 9.268-2.7-3.017-3.345.813.93-2.297-2.537-1.835 1.073-4.7 2.116-6.971 2.116z" fill="#26A69A"/>
    <path d="M42.898 34.067c3.51 3.78 11.674-1.328 10.731-5.512" stroke="#26A69A" stroke-width="3"/>
</svg>
